<?xml version="1.0" encoding="utf-8"?>
<svg version="1.1" xmlns:xlink="http://www.w3.org/1999/xlink" width="9px" height="7px" xmlns="http://www.w3.org/2000/svg">
  <defs>
    <pattern id="BGPattern" patternUnits="userSpaceOnUse" alignment="0 0" imageRepeat="None" />
    <mask fill="white" id="Clip178">
      <path d="M 4.5 0  C 3.3069428354501724 0.0010566171986283734  2.1631396114826202 0.37014511227607727  1.3195202350616455 1.0262935161590576  C 0.4759008586406708 1.682441920042038  0.0013585078268079087 2.5720666497945786  0 3.5  C 0 4.4282577484846115  0.47410451620817184 5.31849742680788  1.3180181980133057 5.97487473487854  C 2.1619318798184395 6.6312520429492  3.3065257519483566 7  4.5 7  C 5.693474248051643 7  6.838065974414349 6.6312520429492  7.681979656219482 5.97487473487854  C 8.525893338024616 5.31849742680788  9 4.4282577484846115  9 3.5  C 8.998660064113208 2.572062164545059  8.524122476577759 1.6824283599853516  7.680499076843262 1.0262768268585205  C 6.836875677108765 0.37012529373168945  5.69306293129921 0.001042172356392257  4.5 0  Z M 4.5 5.25  C 4.05499205365777 5.25  3.619976744055748 5.147364152595401  3.2499661445617676 4.955071687698364  C 2.879955545067787 4.762779222801328  2.5915680192410946 4.489467270672321  2.4212708473205566 4.169696569442749  C 2.2509736754000187 3.8499258682131767  2.206416173838079 3.498058747500181  2.2932329177856445 3.1585919857025146  C 2.38004966173321 2.819125223904848  2.594342026859522 2.507305357605219  2.909010171890259 2.262563467025757  C 3.2236783169209957 2.017821576446295  3.6245895735919476 1.8511497369036078  4.061046838760376 1.783625602722168  C 4.497504103928804 1.716101468540728  4.949902541935444 1.7507573030889034  5.36103630065918 1.8832106590270996  C 5.7721700593829155 2.015664014965296  6.12357328645885 2.239967092871666  6.370806455612183 2.5277531147003174  C 6.618039624765515 2.815539136528969  6.75 3.153882708400488  6.75 3.5  C 6.749292891254299 3.96396005153656  6.512012422084808 4.408759534358978  6.0902087688446045 4.736829042434692  C 5.668405115604401 5.0648985505104065  5.0965200662612915 5.249450026531122  4.5 5.25  Z " fill-rule="evenodd" />
    </mask>
  </defs>
  <g transform="matrix(1 0 0 1 -23 -25 )">
    <path d="M 4.5 0  C 3.3069428354501724 0.0010566171986283734  2.1631396114826202 0.37014511227607727  1.3195202350616455 1.0262935161590576  C 0.4759008586406708 1.682441920042038  0.0013585078268079087 2.5720666497945786  0 3.5  C 0 4.4282577484846115  0.47410451620817184 5.31849742680788  1.3180181980133057 5.97487473487854  C 2.1619318798184395 6.6312520429492  3.3065257519483566 7  4.5 7  C 5.693474248051643 7  6.838065974414349 6.6312520429492  7.681979656219482 5.97487473487854  C 8.525893338024616 5.31849742680788  9 4.4282577484846115  9 3.5  C 8.998660064113208 2.572062164545059  8.524122476577759 1.6824283599853516  7.680499076843262 1.0262768268585205  C 6.836875677108765 0.37012529373168945  5.69306293129921 0.001042172356392257  4.5 0  Z M 4.5 5.25  C 4.05499205365777 5.25  3.619976744055748 5.147364152595401  3.2499661445617676 4.955071687698364  C 2.879955545067787 4.762779222801328  2.5915680192410946 4.489467270672321  2.4212708473205566 4.169696569442749  C 2.2509736754000187 3.8499258682131767  2.206416173838079 3.498058747500181  2.2932329177856445 3.1585919857025146  C 2.38004966173321 2.819125223904848  2.594342026859522 2.507305357605219  2.909010171890259 2.262563467025757  C 3.2236783169209957 2.017821576446295  3.6245895735919476 1.8511497369036078  4.061046838760376 1.783625602722168  C 4.497504103928804 1.716101468540728  4.949902541935444 1.7507573030889034  5.36103630065918 1.8832106590270996  C 5.7721700593829155 2.015664014965296  6.12357328645885 2.239967092871666  6.370806455612183 2.5277531147003174  C 6.618039624765515 2.815539136528969  6.75 3.153882708400488  6.75 3.5  C 6.749292891254299 3.96396005153656  6.512012422084808 4.408759534358978  6.0902087688446045 4.736829042434692  C 5.668405115604401 5.0648985505104065  5.0965200662612915 5.249450026531122  4.5 5.25  Z " fill-rule="nonzero" fill="rgba(225, 106, 0, 1)" stroke="none" transform="matrix(1 0 0 1 23 25 )" class="fill" />
    <path d="M 4.5 0  C 3.3069428354501724 0.0010566171986283734  2.1631396114826202 0.37014511227607727  1.3195202350616455 1.0262935161590576  C 0.4759008586406708 1.682441920042038  0.0013585078268079087 2.5720666497945786  0 3.5  C 0 4.4282577484846115  0.47410451620817184 5.31849742680788  1.3180181980133057 5.97487473487854  C 2.1619318798184395 6.6312520429492  3.3065257519483566 7  4.5 7  C 5.693474248051643 7  6.838065974414349 6.6312520429492  7.681979656219482 5.97487473487854  C 8.525893338024616 5.31849742680788  9 4.4282577484846115  9 3.5  C 8.998660064113208 2.572062164545059  8.524122476577759 1.6824283599853516  7.680499076843262 1.0262768268585205  C 6.836875677108765 0.37012529373168945  5.69306293129921 0.001042172356392257  4.5 0  Z " stroke-width="0" stroke-dasharray="0" stroke="rgba(121, 121, 121, 1)" fill="none" transform="matrix(1 0 0 1 23 25 )" class="stroke" mask="url(#Clip178)" />
    <path d="M 4.5 5.25  C 4.05499205365777 5.25  3.619976744055748 5.147364152595401  3.2499661445617676 4.955071687698364  C 2.879955545067787 4.762779222801328  2.5915680192410946 4.489467270672321  2.4212708473205566 4.169696569442749  C 2.2509736754000187 3.8499258682131767  2.206416173838079 3.498058747500181  2.2932329177856445 3.1585919857025146  C 2.38004966173321 2.819125223904848  2.594342026859522 2.507305357605219  2.909010171890259 2.262563467025757  C 3.2236783169209957 2.017821576446295  3.6245895735919476 1.8511497369036078  4.061046838760376 1.783625602722168  C 4.497504103928804 1.716101468540728  4.949902541935444 1.7507573030889034  5.36103630065918 1.8832106590270996  C 5.7721700593829155 2.015664014965296  6.12357328645885 2.239967092871666  6.370806455612183 2.5277531147003174  C 6.618039624765515 2.815539136528969  6.75 3.153882708400488  6.75 3.5  C 6.749292891254299 3.96396005153656  6.512012422084808 4.408759534358978  6.0902087688446045 4.736829042434692  C 5.668405115604401 5.0648985505104065  5.0965200662612915 5.249450026531122  4.5 5.25  Z " stroke-width="0" stroke-dasharray="0" stroke="rgba(121, 121, 121, 1)" fill="none" transform="matrix(1 0 0 1 23 25 )" class="stroke" mask="url(#Clip178)" />
  </g>
</svg>