<?xml version="1.0" encoding="utf-8"?>
<svg version="1.1" xmlns:xlink="http://www.w3.org/1999/xlink" width="9px" height="7px" xmlns="http://www.w3.org/2000/svg">
  <defs>
    <pattern id="BGPattern" patternUnits="userSpaceOnUse" alignment="0 0" imageRepeat="None" />
    <mask fill="white" id="Clip177">
      <path d="M 4.499999731779082 0  C 3.306942496117502 0.0010566171986283734  2.163139203973961 0.37014511227607727  1.31951977726935 1.0262935161590576  C 0.4759003505647392 1.682441920042038  0.00135850790778129 2.5720666497945786  0 3.5  C 0 4.4282577484846115  0.47410615379250975 5.31849742680788  1.3180198858988217 5.97487473487854  C 2.161933618005133 6.6312520429492  3.306525412590826 7  4.499999731779082 7  C 5.693474050967337 7  6.8380669184367004 6.6312520429492  7.681980650543013 5.97487473487854  C 8.525894382649325 5.31849742680788  9.000000000000002 4.4282577484846115  9 3.5  C 8.998660064033343 2.572062164545059  8.524124593980586 1.6824283599853516  7.680501143962212 1.0262768268585205  C 6.83687769394384 0.37012529373168945  5.693062734190388 0.001042172356392257  4.499999731779082 0  Z M 4.499999731779082 5.25  C 4.05499175891231 5.25  3.6199774962650233 5.147364152595401  3.249966874716691 4.955071687698364  C 2.8799562531683587 4.762779222801328  2.59156871015243 4.489467270672321  2.421271528081389 4.169696569442749  C 2.2509743460103473 3.8499258682131767  2.2064168417925742 3.498058747500181  2.293233590914821 3.1585919857025146  C 2.380050340037068 2.819125223904848  2.5943416450525305 2.507305357605219  2.9090098088389515 2.262563467025757  C 3.223677972625373 2.017821576446295  3.6245892531924997 1.8511497369036078  4.0610465443758095 1.783625602722168  C 4.49750383555912 1.716101468540728  4.949904446298149 1.7507573030889034  5.361038229527367 1.8832106590270996  C 5.772172012756586 2.015664014965296  6.123574187894116 2.239967092871666  6.3708073717836955 2.5277531147003174  C 6.618040555673274 2.815539136528969  6.7499998658895395 3.153882708400488  6.74999986588954 3.5  C 6.749292757101693 3.96396005153656  6.512013346672853 4.408759534358978  6.090209668291191 4.736829042434692  C 5.668405989909528 5.0648985505104065  5.0965198335957425 5.249450026531122  4.499999731779082 5.25  Z " fill-rule="evenodd" />
    </mask>
  </defs>
  <g transform="matrix(1 0 0 1 -7 -25 )">
    <path d="M 4.499999731779082 0  C 3.306942496117502 0.0010566171986283734  2.163139203973961 0.37014511227607727  1.31951977726935 1.0262935161590576  C 0.4759003505647392 1.682441920042038  0.00135850790778129 2.5720666497945786  0 3.5  C 0 4.4282577484846115  0.47410615379250975 5.31849742680788  1.3180198858988217 5.97487473487854  C 2.161933618005133 6.6312520429492  3.306525412590826 7  4.499999731779082 7  C 5.693474050967337 7  6.8380669184367004 6.6312520429492  7.681980650543013 5.97487473487854  C 8.525894382649325 5.31849742680788  9.000000000000002 4.4282577484846115  9 3.5  C 8.998660064033343 2.572062164545059  8.524124593980586 1.6824283599853516  7.680501143962212 1.0262768268585205  C 6.83687769394384 0.37012529373168945  5.693062734190388 0.001042172356392257  4.499999731779082 0  Z M 4.499999731779082 5.25  C 4.05499175891231 5.25  3.6199774962650233 5.147364152595401  3.249966874716691 4.955071687698364  C 2.8799562531683587 4.762779222801328  2.59156871015243 4.489467270672321  2.421271528081389 4.169696569442749  C 2.2509743460103473 3.8499258682131767  2.2064168417925742 3.498058747500181  2.293233590914821 3.1585919857025146  C 2.380050340037068 2.819125223904848  2.5943416450525305 2.507305357605219  2.9090098088389515 2.262563467025757  C 3.223677972625373 2.017821576446295  3.6245892531924997 1.8511497369036078  4.0610465443758095 1.783625602722168  C 4.49750383555912 1.716101468540728  4.949904446298149 1.7507573030889034  5.361038229527367 1.8832106590270996  C 5.772172012756586 2.015664014965296  6.123574187894116 2.239967092871666  6.3708073717836955 2.5277531147003174  C 6.618040555673274 2.815539136528969  6.7499998658895395 3.153882708400488  6.74999986588954 3.5  C 6.749292757101693 3.96396005153656  6.512013346672853 4.408759534358978  6.090209668291191 4.736829042434692  C 5.668405989909528 5.0648985505104065  5.0965198335957425 5.249450026531122  4.499999731779082 5.25  Z " fill-rule="nonzero" fill="rgba(225, 106, 0, 1)" stroke="none" transform="matrix(1 0 0 1 7 25 )" class="fill" />
    <path d="M 4.499999731779082 0  C 3.306942496117502 0.0010566171986283734  2.163139203973961 0.37014511227607727  1.31951977726935 1.0262935161590576  C 0.4759003505647392 1.682441920042038  0.00135850790778129 2.5720666497945786  0 3.5  C 0 4.4282577484846115  0.47410615379250975 5.31849742680788  1.3180198858988217 5.97487473487854  C 2.161933618005133 6.6312520429492  3.306525412590826 7  4.499999731779082 7  C 5.693474050967337 7  6.8380669184367004 6.6312520429492  7.681980650543013 5.97487473487854  C 8.525894382649325 5.31849742680788  9.000000000000002 4.4282577484846115  9 3.5  C 8.998660064033343 2.572062164545059  8.524124593980586 1.6824283599853516  7.680501143962212 1.0262768268585205  C 6.83687769394384 0.37012529373168945  5.693062734190388 0.001042172356392257  4.499999731779082 0  Z " stroke-width="0" stroke-dasharray="0" stroke="rgba(121, 121, 121, 1)" fill="none" transform="matrix(1 0 0 1 7 25 )" class="stroke" mask="url(#Clip177)" />
    <path d="M 4.499999731779082 5.25  C 4.05499175891231 5.25  3.6199774962650233 5.147364152595401  3.249966874716691 4.955071687698364  C 2.8799562531683587 4.762779222801328  2.59156871015243 4.489467270672321  2.421271528081389 4.169696569442749  C 2.2509743460103473 3.8499258682131767  2.2064168417925742 3.498058747500181  2.293233590914821 3.1585919857025146  C 2.380050340037068 2.819125223904848  2.5943416450525305 2.507305357605219  2.9090098088389515 2.262563467025757  C 3.223677972625373 2.017821576446295  3.6245892531924997 1.8511497369036078  4.0610465443758095 1.783625602722168  C 4.49750383555912 1.716101468540728  4.949904446298149 1.7507573030889034  5.361038229527367 1.8832106590270996  C 5.772172012756586 2.015664014965296  6.123574187894116 2.239967092871666  6.3708073717836955 2.5277531147003174  C 6.618040555673274 2.815539136528969  6.7499998658895395 3.153882708400488  6.74999986588954 3.5  C 6.749292757101693 3.96396005153656  6.512013346672853 4.408759534358978  6.090209668291191 4.736829042434692  C 5.668405989909528 5.0648985505104065  5.0965198335957425 5.249450026531122  4.499999731779082 5.25  Z " stroke-width="0" stroke-dasharray="0" stroke="rgba(121, 121, 121, 1)" fill="none" transform="matrix(1 0 0 1 7 25 )" class="stroke" mask="url(#Clip177)" />
  </g>
</svg>