<?xml version="1.0" encoding="utf-8"?>
<svg version="1.1" xmlns:xlink="http://www.w3.org/1999/xlink" width="35px" height="18px" xmlns="http://www.w3.org/2000/svg">
  <defs>
    <pattern id="BGPattern" patternUnits="userSpaceOnUse" alignment="0 0" imageRepeat="None" />
    <mask fill="white" id="Clip176">
      <path d="M 35 4.50164517378501  L 10.5 4.50164517378501  L 10.5 6.301425817280341  L 32.666666666666664 6.301425817280341  L 32.666666666666664 9.864147912880645  L 30.078125 16  L 9.765875498453777 16  L 6.849208275477092 0  L 0 0  L 0 1.7997806434953323  L 4.817458391189575 1.7997806434953323  L 7.734125057856242 18  L 31.789332389831543 18  L 35 10.14097650833343  L 35 4.50164517378501  Z " fill-rule="evenodd" />
    </mask>
  </defs>
  <g transform="matrix(1 0 0 1 0 -6 )">
    <path d="M 35 4.50164517378501  L 10.5 4.50164517378501  L 10.5 6.301425817280341  L 32.666666666666664 6.301425817280341  L 32.666666666666664 9.864147912880645  L 30.078125 16  L 9.765875498453777 16  L 6.849208275477092 0  L 0 0  L 0 1.7997806434953323  L 4.817458391189575 1.7997806434953323  L 7.734125057856242 18  L 31.789332389831543 18  L 35 10.14097650833343  L 35 4.50164517378501  Z " fill-rule="nonzero" fill="rgba(225, 106, 0, 1)" stroke="none" transform="matrix(1 0 0 1 0 6 )" class="fill" />
    <path d="M 35 4.50164517378501  L 10.5 4.50164517378501  L 10.5 6.301425817280341  L 32.666666666666664 6.301425817280341  L 32.666666666666664 9.864147912880645  L 30.078125 16  L 9.765875498453777 16  L 6.849208275477092 0  L 0 0  L 0 1.7997806434953323  L 4.817458391189575 1.7997806434953323  L 7.734125057856242 18  L 31.789332389831543 18  L 35 10.14097650833343  L 35 4.50164517378501  Z " stroke-width="0" stroke-dasharray="0" stroke="rgba(121, 121, 121, 1)" fill="none" transform="matrix(1 0 0 1 0 6 )" class="stroke" mask="url(#Clip176)" />
  </g>
</svg>