<?xml version="1.0" encoding="utf-8"?>
<svg version="1.1" xmlns:xlink="http://www.w3.org/1999/xlink" width="60px" height="48px" xmlns="http://www.w3.org/2000/svg">
  <defs>
    <pattern id="BGPattern" patternUnits="userSpaceOnUse" alignment="0 0" imageRepeat="None" />
    <mask fill="white" id="Clip159">
      <path d="M 60 5.69367623158838  C 57.793534744431994 6.655833212090952  55.42323808812193 7.305939988482663  52.931385596501755 7.599787922274816  C 55.50251379039308 6.0858008052423  57.42608312452545 3.70296419023591  58.34317206383511 0.8958940578557624  C 55.92754253796658 2.3078970949774242  53.28374970168801 3.30179385423056  50.5267351803518 3.8343737445213604  C 48.672723177058586 1.8863048876661779  46.2170225074033 0.5950929326730722  43.540894636079535 0.16120652827709891  C 40.864766764755764 -0.2726798761188743  38.11793706202949 0.17503425958379695  35.72686944909746 1.4348391086039656  C 33.335801836165416 2.6946439576241343  31.43427215087795 4.696054769454856  30.31750475850148 7.128340503166906  C 29.200737366125015 9.560626236878957  28.93121390172929 12.287702540220781  29.550779315657806 14.886176136523332  C 24.65609132290751 14.644326795561785  19.86777407721108 13.392360686303524  15.496585193997925 11.21152965450881  C 11.125396310784769 9.030698622714098  7.269024618708767 5.96974110480467  4.177750096329257 2.2273114860072516  C 3.120760709431901 4.02160420410714  2.5129923218841173 6.101943625599116  2.5129923218841173 8.317505071513716  C 2.5118129653234873 10.312017958201137  3.0109205498466416 12.275980399653466  3.96603174619175 14.035141415460718  C 4.921142942536858 15.794302431267969  6.302725462752141 17.29426817685075  7.988197177483474 18.4019503214852  C 6.03349700276778 18.340742817047623  4.121923070913705 17.820972853348522  2.4125783643859213 16.885902514511887  C 2.4125783643859213 16.885902514511887  2.4125783643859213 17.04192658002245  2.4125783643859213 17.04192658002245  C 2.4123811892617413 19.839309687211188  3.395664736133438 22.550609738959643  5.195586192193311 24.715770382359892  C 6.995507648253183 26.880931025760148  9.501202194165005 28.366593885932687  12.28750169158963 28.92066780303844  C 10.47419289439113 29.403605292911948  8.573075790019608 29.47474063516266  6.72773735743081 29.128701543691072  C 7.5138659161006816 31.53568721284155  9.045174515348545 33.64050459288186  11.107286221501598 35.14848912703832  C 13.16939792765465 36.656473661194774  15.65907812838239 37.492131980267494  18.227782340484673 37.5384740654279  C 13.867260237172834 40.907092204004634  8.48204180727546 42.734350950988585  2.938430421547916 42.72631516295803  C 1.9564372041608191 42.72657903155102  0.9752742674755385 42.67014308206986  0 42.557291158619755  C 5.627083931322343 46.11772628375016  12.177416692518273 48.00731422384192  18.86725992216546 47.99997520042192  C 41.51325639257077 47.999975200421915  53.89324677098535 29.542167549256096  53.89324677098535 13.533955582302358  C 53.89324677098535 13.013870726929365  53.88003456410602 12.488584431300211  53.85625230427898 11.968499575927215  C 56.26431582539116 10.25475356245939  58.34293502078167 8.132603292309321  59.99471795625227 5.70147817885125  C 59.99471795625227 5.70147817885125  60 5.69367623158838  60 5.69367623158838  Z " fill-rule="evenodd" />
    </mask>
  </defs>
  <g transform="matrix(1 0 0 1 -2 -7 )">
    <path d="M 60 5.69367623158838  C 57.793534744431994 6.655833212090952  55.42323808812193 7.305939988482663  52.931385596501755 7.599787922274816  C 55.50251379039308 6.0858008052423  57.42608312452545 3.70296419023591  58.34317206383511 0.8958940578557624  C 55.92754253796658 2.3078970949774242  53.28374970168801 3.30179385423056  50.5267351803518 3.8343737445213604  C 48.672723177058586 1.8863048876661779  46.2170225074033 0.5950929326730722  43.540894636079535 0.16120652827709891  C 40.864766764755764 -0.2726798761188743  38.11793706202949 0.17503425958379695  35.72686944909746 1.4348391086039656  C 33.335801836165416 2.6946439576241343  31.43427215087795 4.696054769454856  30.31750475850148 7.128340503166906  C 29.200737366125015 9.560626236878957  28.93121390172929 12.287702540220781  29.550779315657806 14.886176136523332  C 24.65609132290751 14.644326795561785  19.86777407721108 13.392360686303524  15.496585193997925 11.21152965450881  C 11.125396310784769 9.030698622714098  7.269024618708767 5.96974110480467  4.177750096329257 2.2273114860072516  C 3.120760709431901 4.02160420410714  2.5129923218841173 6.101943625599116  2.5129923218841173 8.317505071513716  C 2.5118129653234873 10.312017958201137  3.0109205498466416 12.275980399653466  3.96603174619175 14.035141415460718  C 4.921142942536858 15.794302431267969  6.302725462752141 17.29426817685075  7.988197177483474 18.4019503214852  C 6.03349700276778 18.340742817047623  4.121923070913705 17.820972853348522  2.4125783643859213 16.885902514511887  C 2.4125783643859213 16.885902514511887  2.4125783643859213 17.04192658002245  2.4125783643859213 17.04192658002245  C 2.4123811892617413 19.839309687211188  3.395664736133438 22.550609738959643  5.195586192193311 24.715770382359892  C 6.995507648253183 26.880931025760148  9.501202194165005 28.366593885932687  12.28750169158963 28.92066780303844  C 10.47419289439113 29.403605292911948  8.573075790019608 29.47474063516266  6.72773735743081 29.128701543691072  C 7.5138659161006816 31.53568721284155  9.045174515348545 33.64050459288186  11.107286221501598 35.14848912703832  C 13.16939792765465 36.656473661194774  15.65907812838239 37.492131980267494  18.227782340484673 37.5384740654279  C 13.867260237172834 40.907092204004634  8.48204180727546 42.734350950988585  2.938430421547916 42.72631516295803  C 1.9564372041608191 42.72657903155102  0.9752742674755385 42.67014308206986  0 42.557291158619755  C 5.627083931322343 46.11772628375016  12.177416692518273 48.00731422384192  18.86725992216546 47.99997520042192  C 41.51325639257077 47.999975200421915  53.89324677098535 29.542167549256096  53.89324677098535 13.533955582302358  C 53.89324677098535 13.013870726929365  53.88003456410602 12.488584431300211  53.85625230427898 11.968499575927215  C 56.26431582539116 10.25475356245939  58.34293502078167 8.132603292309321  59.99471795625227 5.70147817885125  C 59.99471795625227 5.70147817885125  60 5.69367623158838  60 5.69367623158838  Z " fill-rule="nonzero" fill="rgba(36, 20, 0, 1)" stroke="none" transform="matrix(1 0 0 1 2 7 )" class="fill" />
    <path d="M 60 5.69367623158838  C 57.793534744431994 6.655833212090952  55.42323808812193 7.305939988482663  52.931385596501755 7.599787922274816  C 55.50251379039308 6.0858008052423  57.42608312452545 3.70296419023591  58.34317206383511 0.8958940578557624  C 55.92754253796658 2.3078970949774242  53.28374970168801 3.30179385423056  50.5267351803518 3.8343737445213604  C 48.672723177058586 1.8863048876661779  46.2170225074033 0.5950929326730722  43.540894636079535 0.16120652827709891  C 40.864766764755764 -0.2726798761188743  38.11793706202949 0.17503425958379695  35.72686944909746 1.4348391086039656  C 33.335801836165416 2.6946439576241343  31.43427215087795 4.696054769454856  30.31750475850148 7.128340503166906  C 29.200737366125015 9.560626236878957  28.93121390172929 12.287702540220781  29.550779315657806 14.886176136523332  C 24.65609132290751 14.644326795561785  19.86777407721108 13.392360686303524  15.496585193997925 11.21152965450881  C 11.125396310784769 9.030698622714098  7.269024618708767 5.96974110480467  4.177750096329257 2.2273114860072516  C 3.120760709431901 4.02160420410714  2.5129923218841173 6.101943625599116  2.5129923218841173 8.317505071513716  C 2.5118129653234873 10.312017958201137  3.0109205498466416 12.275980399653466  3.96603174619175 14.035141415460718  C 4.921142942536858 15.794302431267969  6.302725462752141 17.29426817685075  7.988197177483474 18.4019503214852  C 6.03349700276778 18.340742817047623  4.121923070913705 17.820972853348522  2.4125783643859213 16.885902514511887  C 2.4125783643859213 16.885902514511887  2.4125783643859213 17.04192658002245  2.4125783643859213 17.04192658002245  C 2.4123811892617413 19.839309687211188  3.395664736133438 22.550609738959643  5.195586192193311 24.715770382359892  C 6.995507648253183 26.880931025760148  9.501202194165005 28.366593885932687  12.28750169158963 28.92066780303844  C 10.47419289439113 29.403605292911948  8.573075790019608 29.47474063516266  6.72773735743081 29.128701543691072  C 7.5138659161006816 31.53568721284155  9.045174515348545 33.64050459288186  11.107286221501598 35.14848912703832  C 13.16939792765465 36.656473661194774  15.65907812838239 37.492131980267494  18.227782340484673 37.5384740654279  C 13.867260237172834 40.907092204004634  8.48204180727546 42.734350950988585  2.938430421547916 42.72631516295803  C 1.9564372041608191 42.72657903155102  0.9752742674755385 42.67014308206986  0 42.557291158619755  C 5.627083931322343 46.11772628375016  12.177416692518273 48.00731422384192  18.86725992216546 47.99997520042192  C 41.51325639257077 47.999975200421915  53.89324677098535 29.542167549256096  53.89324677098535 13.533955582302358  C 53.89324677098535 13.013870726929365  53.88003456410602 12.488584431300211  53.85625230427898 11.968499575927215  C 56.26431582539116 10.25475356245939  58.34293502078167 8.132603292309321  59.99471795625227 5.70147817885125  C 59.99471795625227 5.70147817885125  60 5.69367623158838  60 5.69367623158838  Z " stroke-width="0" stroke-dasharray="0" stroke="rgba(121, 121, 121, 1)" fill="none" transform="matrix(1 0 0 1 2 7 )" class="stroke" mask="url(#Clip159)" />
  </g>
</svg>