<?xml version="1.0" encoding="utf-8"?>
<svg version="1.1" xmlns:xlink="http://www.w3.org/1999/xlink" width="14px" height="14px" xmlns="http://www.w3.org/2000/svg">
  <defs>
    <pattern id="BGPattern" patternUnits="userSpaceOnUse" alignment="0 0" imageRepeat="None" />
    <mask fill="white" id="Clip155">
      <path d="M 14 13.5556640625  C 14 13.4326171875  13.959104186952288 13.330078125  13.877312560856865 13.248046875  C 13.877312560856865 13.248046875  9.63777994157741 8.96875  9.63777994157741 8.96875  C 10.482960077896788 7.95703125  10.905550146056475 6.790364548563957  10.905550146056475 5.46875  C 10.905550146056475 4.475260451436043  10.66244727471787 3.5592447742819786  10.176241480038948 2.720703125  C 9.690035685360026 1.8821614757180214  9.0266147528094 1.2190755382180214  8.185978578383642 0.7314453125  C 7.345342403957883 0.2438150867819786  6.432002631227368 0  5.445959104186953 0  C 4.459915577146536 0  3.5488477593619727 0.2438150867819786  2.7127555988315484 0.7314453125  C 1.8766634383011238 1.2190755382180214  1.2155144606964496 1.8821614757180214  0.7293086660175268 2.720703125  C 0.24310287133860375 3.5592447742819786  0 4.475260451436043  0 5.46875  C 0 6.462239548563957  0.24310287133860375 7.378255225718021  0.7293086660175268 8.216796875  C 1.2155144606964496 9.055338524281979  1.8766634383011238 9.718424461781979  2.7127555988315484 10.2060546875  C 3.5488477593619727 10.693684913218021  4.462187636095918 10.9375  5.452775073028238 10.9375  C 6.806880917498059 10.9375  7.997403405773605 10.490885451436043  9.024342745861732 9.59765625  C 9.024342745861732 9.59765625  13.250243427458617 13.86328125  13.250243427458617 13.86328125  C 13.341123009842349 13.954427081160247  13.445634529908652 14  13.563777994157741 14  C 13.68192145840683 14  13.784160984525895 13.956705731339753  13.870496592015579 13.8701171875  C 13.956832199505264 13.783528643660247  14 13.6787109375  14 13.5556640625  Z M 6.502434274586173 9.953125  C 6.157091844627432 10.03515625  5.807205452775074 10.076171875  5.452775073028238 10.076171875  C 4.616682912497813 10.076171875  3.846478433432574 9.86881511285901  3.142161635832522 9.4541015625  C 2.4378448382324693 9.03938801214099  1.8812074001947419 8.478841163218021  1.472249269717624 7.7724609375  C 1.0632911392405064 7.066080711781979  0.8588120740019474 6.298177100718021  0.8588120740019474 5.46875  C 0.8588120740019474 4.639322899281979  1.0632911392405064 3.8714192882180214  1.472249269717624 3.1650390625  C 1.8812074001947419 2.4586588367819786  2.4378448382324693 1.8981119878590107  3.142161635832522 1.4833984375  C 3.846478433432574 1.0686848871409893  4.614410905550146 0.861328125  5.445959104186953 0.861328125  C 6.277507302823758 0.861328125  7.045439774941331 1.0686848871409893  7.749756572541383 1.4833984375  C 8.454073370141435 1.8981119878590107  9.010710808179162 2.4586588367819786  9.41966893865628 3.1650390625  C 9.828627069133399 3.8714192882180214  10.033106134371957 4.639322899281979  10.033106134371957 5.46875  C 10.033106134371957 5.82421875  9.992210321324244 6.175130199640989  9.910418695228822 6.521484375  C 9.828627069133399 6.867838550359011  9.712755598831547 7.19140625  9.56280428432327 7.4921875  C 9.412852969814995 7.79296875  9.233365785994339 8.07779948785901  9.024342745861732 8.3466796875  C 8.815319705729125 8.61555988714099  8.579032790231379 8.854817712679505  8.315481986368061 9.064453125  C 8.051931182504745 9.274088537320495  7.770204479065239 9.4541015625  7.470301850048686 9.6044921875  C 7.170399221032134 9.7548828125  6.847776704544914 9.87109375  6.502434274586173 9.953125  Z " fill-rule="evenodd" />
    </mask>
  </defs>
  <g>
    <path d="M 14 13.5556640625  C 14 13.4326171875  13.959104186952288 13.330078125  13.877312560856865 13.248046875  C 13.877312560856865 13.248046875  9.63777994157741 8.96875  9.63777994157741 8.96875  C 10.482960077896788 7.95703125  10.905550146056475 6.790364548563957  10.905550146056475 5.46875  C 10.905550146056475 4.475260451436043  10.66244727471787 3.5592447742819786  10.176241480038948 2.720703125  C 9.690035685360026 1.8821614757180214  9.0266147528094 1.2190755382180214  8.185978578383642 0.7314453125  C 7.345342403957883 0.2438150867819786  6.432002631227368 0  5.445959104186953 0  C 4.459915577146536 0  3.5488477593619727 0.2438150867819786  2.7127555988315484 0.7314453125  C 1.8766634383011238 1.2190755382180214  1.2155144606964496 1.8821614757180214  0.7293086660175268 2.720703125  C 0.24310287133860375 3.5592447742819786  0 4.475260451436043  0 5.46875  C 0 6.462239548563957  0.24310287133860375 7.378255225718021  0.7293086660175268 8.216796875  C 1.2155144606964496 9.055338524281979  1.8766634383011238 9.718424461781979  2.7127555988315484 10.2060546875  C 3.5488477593619727 10.693684913218021  4.462187636095918 10.9375  5.452775073028238 10.9375  C 6.806880917498059 10.9375  7.997403405773605 10.490885451436043  9.024342745861732 9.59765625  C 9.024342745861732 9.59765625  13.250243427458617 13.86328125  13.250243427458617 13.86328125  C 13.341123009842349 13.954427081160247  13.445634529908652 14  13.563777994157741 14  C 13.68192145840683 14  13.784160984525895 13.956705731339753  13.870496592015579 13.8701171875  C 13.956832199505264 13.783528643660247  14 13.6787109375  14 13.5556640625  Z M 6.502434274586173 9.953125  C 6.157091844627432 10.03515625  5.807205452775074 10.076171875  5.452775073028238 10.076171875  C 4.616682912497813 10.076171875  3.846478433432574 9.86881511285901  3.142161635832522 9.4541015625  C 2.4378448382324693 9.03938801214099  1.8812074001947419 8.478841163218021  1.472249269717624 7.7724609375  C 1.0632911392405064 7.066080711781979  0.8588120740019474 6.298177100718021  0.8588120740019474 5.46875  C 0.8588120740019474 4.639322899281979  1.0632911392405064 3.8714192882180214  1.472249269717624 3.1650390625  C 1.8812074001947419 2.4586588367819786  2.4378448382324693 1.8981119878590107  3.142161635832522 1.4833984375  C 3.846478433432574 1.0686848871409893  4.614410905550146 0.861328125  5.445959104186953 0.861328125  C 6.277507302823758 0.861328125  7.045439774941331 1.0686848871409893  7.749756572541383 1.4833984375  C 8.454073370141435 1.8981119878590107  9.010710808179162 2.4586588367819786  9.41966893865628 3.1650390625  C 9.828627069133399 3.8714192882180214  10.033106134371957 4.639322899281979  10.033106134371957 5.46875  C 10.033106134371957 5.82421875  9.992210321324244 6.175130199640989  9.910418695228822 6.521484375  C 9.828627069133399 6.867838550359011  9.712755598831547 7.19140625  9.56280428432327 7.4921875  C 9.412852969814995 7.79296875  9.233365785994339 8.07779948785901  9.024342745861732 8.3466796875  C 8.815319705729125 8.61555988714099  8.579032790231379 8.854817712679505  8.315481986368061 9.064453125  C 8.051931182504745 9.274088537320495  7.770204479065239 9.4541015625  7.470301850048686 9.6044921875  C 7.170399221032134 9.7548828125  6.847776704544914 9.87109375  6.502434274586173 9.953125  Z " fill-rule="nonzero" fill="rgba(36, 20, 0, 1)" stroke="none" class="fill" />
    <path d="M 14 13.5556640625  C 14 13.4326171875  13.959104186952288 13.330078125  13.877312560856865 13.248046875  C 13.877312560856865 13.248046875  9.63777994157741 8.96875  9.63777994157741 8.96875  C 10.482960077896788 7.95703125  10.905550146056475 6.790364548563957  10.905550146056475 5.46875  C 10.905550146056475 4.475260451436043  10.66244727471787 3.5592447742819786  10.176241480038948 2.720703125  C 9.690035685360026 1.8821614757180214  9.0266147528094 1.2190755382180214  8.185978578383642 0.7314453125  C 7.345342403957883 0.2438150867819786  6.432002631227368 0  5.445959104186953 0  C 4.459915577146536 0  3.5488477593619727 0.2438150867819786  2.7127555988315484 0.7314453125  C 1.8766634383011238 1.2190755382180214  1.2155144606964496 1.8821614757180214  0.7293086660175268 2.720703125  C 0.24310287133860375 3.5592447742819786  0 4.475260451436043  0 5.46875  C 0 6.462239548563957  0.24310287133860375 7.378255225718021  0.7293086660175268 8.216796875  C 1.2155144606964496 9.055338524281979  1.8766634383011238 9.718424461781979  2.7127555988315484 10.2060546875  C 3.5488477593619727 10.693684913218021  4.462187636095918 10.9375  5.452775073028238 10.9375  C 6.806880917498059 10.9375  7.997403405773605 10.490885451436043  9.024342745861732 9.59765625  C 9.024342745861732 9.59765625  13.250243427458617 13.86328125  13.250243427458617 13.86328125  C 13.341123009842349 13.954427081160247  13.445634529908652 14  13.563777994157741 14  C 13.68192145840683 14  13.784160984525895 13.956705731339753  13.870496592015579 13.8701171875  C 13.956832199505264 13.783528643660247  14 13.6787109375  14 13.5556640625  Z " stroke-width="0" stroke-dasharray="0" stroke="rgba(121, 121, 121, 1)" fill="none" class="stroke" mask="url(#Clip155)" />
    <path d="M 6.502434274586173 9.953125  C 6.157091844627432 10.03515625  5.807205452775074 10.076171875  5.452775073028238 10.076171875  C 4.616682912497813 10.076171875  3.846478433432574 9.86881511285901  3.142161635832522 9.4541015625  C 2.4378448382324693 9.03938801214099  1.8812074001947419 8.478841163218021  1.472249269717624 7.7724609375  C 1.0632911392405064 7.066080711781979  0.8588120740019474 6.298177100718021  0.8588120740019474 5.46875  C 0.8588120740019474 4.639322899281979  1.0632911392405064 3.8714192882180214  1.472249269717624 3.1650390625  C 1.8812074001947419 2.4586588367819786  2.4378448382324693 1.8981119878590107  3.142161635832522 1.4833984375  C 3.846478433432574 1.0686848871409893  4.614410905550146 0.861328125  5.445959104186953 0.861328125  C 6.277507302823758 0.861328125  7.045439774941331 1.0686848871409893  7.749756572541383 1.4833984375  C 8.454073370141435 1.8981119878590107  9.010710808179162 2.4586588367819786  9.41966893865628 3.1650390625  C 9.828627069133399 3.8714192882180214  10.033106134371957 4.639322899281979  10.033106134371957 5.46875  C 10.033106134371957 5.82421875  9.992210321324244 6.175130199640989  9.910418695228822 6.521484375  C 9.828627069133399 6.867838550359011  9.712755598831547 7.19140625  9.56280428432327 7.4921875  C 9.412852969814995 7.79296875  9.233365785994339 8.07779948785901  9.024342745861732 8.3466796875  C 8.815319705729125 8.61555988714099  8.579032790231379 8.854817712679505  8.315481986368061 9.064453125  C 8.051931182504745 9.274088537320495  7.770204479065239 9.4541015625  7.470301850048686 9.6044921875  C 7.170399221032134 9.7548828125  6.847776704544914 9.87109375  6.502434274586173 9.953125  Z " stroke-width="0" stroke-dasharray="0" stroke="rgba(121, 121, 121, 1)" fill="none" class="stroke" mask="url(#Clip155)" />
  </g>
</svg>