<?xml version="1.0" encoding="utf-8"?>
<svg version="1.1" xmlns:xlink="http://www.w3.org/1999/xlink" width="24px" height="22px" xmlns="http://www.w3.org/2000/svg">
  <defs>
    <pattern id="BGPattern" patternUnits="userSpaceOnUse" alignment="0 0" imageRepeat="None" />
    <mask fill="white" id="Clip157">
      <path d="M 12 3.700894864898599  C 12 3.700894864898599  9.313199901580811 0  6 0  C 2.6868000984191895 0  0 2.733727478242287  0 6.106476291786128  C 0 8.829101301906555  1.0499999999999996 15.290864514851117  11.385599899291993 21.822944045515765  C 11.570738428831099 21.938749640303755  11.783283698558808 22  12 22  C 12.216716301441194 22  12.429261571168901 21.938749640303755  12.614400100708007 21.822944045515765  C 22.95 15.290864514851117  24 8.829101301906555  24 6.106476291786128  C 24 2.733727478242287  21.31319990158081 0  18 0  C 14.68680009841919 0  12 3.700894864898599  12 3.700894864898599  Z " fill-rule="evenodd" />
    </mask>
  </defs>
  <g transform="matrix(1 0 0 1 -3 -4 )">
    <path d="M 12 3.700894864898599  C 12 3.700894864898599  9.313199901580811 0  6 0  C 2.6868000984191895 0  0 2.733727478242287  0 6.106476291786128  C 0 8.829101301906555  1.0499999999999996 15.290864514851117  11.385599899291993 21.822944045515765  C 11.570738428831099 21.938749640303755  11.783283698558808 22  12 22  C 12.216716301441194 22  12.429261571168901 21.938749640303755  12.614400100708007 21.822944045515765  C 22.95 15.290864514851117  24 8.829101301906555  24 6.106476291786128  C 24 2.733727478242287  21.31319990158081 0  18 0  C 14.68680009841919 0  12 3.700894864898599  12 3.700894864898599  Z " fill-rule="nonzero" fill="rgba(255, 255, 255, 0)" stroke="none" transform="matrix(1 0 0 1 3 4 )" class="fill" />
    <path d="M 12 3.700894864898599  C 12 3.700894864898599  9.313199901580811 0  6 0  C 2.6868000984191895 0  0 2.733727478242287  0 6.106476291786128  C 0 8.829101301906555  1.0499999999999996 15.290864514851117  11.385599899291993 21.822944045515765  C 11.570738428831099 21.938749640303755  11.783283698558808 22  12 22  C 12.216716301441194 22  12.429261571168901 21.938749640303755  12.614400100708007 21.822944045515765  C 22.95 15.290864514851117  24 8.829101301906555  24 6.106476291786128  C 24 2.733727478242287  21.31319990158081 0  18 0  C 14.68680009841919 0  12 3.700894864898599  12 3.700894864898599  Z " stroke-width="4" stroke-dasharray="0" stroke="rgba(225, 106, 0, 1)" fill="none" transform="matrix(1 0 0 1 3 4 )" class="stroke" mask="url(#Clip157)" />
  </g>
</svg>