<?xml version="1.0" encoding="utf-8"?>
<svg version="1.1" xmlns:xlink="http://www.w3.org/1999/xlink" width="63px" height="42px" xmlns="http://www.w3.org/2000/svg">
  <defs>
    <pattern id="BGPattern" patternUnits="userSpaceOnUse" alignment="0 0" imageRepeat="None" />
    <mask fill="white" id="Clip162">
      <path d="M 61.68082319627831 6.587179111903122  C 61.68082319627831 6.587179111903122  61.68082319627831 6.589802293689138  61.68082319627831 6.589802293689138  C 61.32415248507006 5.318073490638462  60.629370535964384 4.166713252312953  59.670341738973924 3.2581199976554163  C 58.68422609658786 2.3215856976637794  57.47560969086833 1.6516609396812938  56.15856596214184 1.311577836517464  C 51.22947910363496 0.01300872061854133  31.481635061251428 0.013009012581598036  31.481635061251428 0.013009012581598036  C 23.24898432449807 -0.08061219837804438  15.018350426970095 0.3311571548404575  6.836200768717015 1.2459932881822255  C 5.519126846849782 1.6112013393881492  4.312768434378751 2.2960947378926906  3.3244228017089137 3.2397564742320952  C 2.3533034509227746 4.173676896164246  1.6498981139803355 5.325337199215993  1.2824475519891168 6.587179111903122  C 0.39976039052278556 11.340057079534999  -0.0291094278748368 16.166012926305015  0.001619888003261382 20.99998498894543  C -0.02987587459280838 25.8296126022092  0.3979415275648302 30.653992288249416  1.2824475519891168 35.412788989605914  C 1.6420241574427643 36.66938414780814  2.3428048422060135 37.81580035458256  3.316548806061056 38.74185060569605  C 4.2902927699161 39.667900856809545  5.5028801211877525 40.336860802714355  6.836200768717015 40.6910160268026  C 11.830903736152228 41.98696172636778  31.481635061251428 41.98696039726398  31.481635061251428 41.98696039726398  C 39.724764225814006 42.0807093487798  47.96588593761982 41.66894291885668  56.15856596214184 40.75397739335182  C 57.47560969086833 40.41389429018799  58.68422609658786 39.74396820310171  59.670341738973924 38.80743390311007  C 60.64146108976007 37.88138365199658  61.33174660751172 36.729722098023615  61.6781999911797 35.47575035615514  C 62.58393281041599 30.724704049911043  63.02432831137448 25.896748605580253  62.993146626374056 21.060321922787423  C 63.061267172240164 16.203422350673957  62.621437775559905 11.352702329358264  61.68082319627831 6.587179111903122  Z M 41.633769196569936 21.00260942165266  L 26 29.98240990329307  L 26 12.020182005462594  L 41.633769196569936 21.00260942165266  Z " fill-rule="evenodd" />
    </mask>
  </defs>
  <g transform="matrix(1 0 0 1 0 -10 )">
    <path d="M 61.68082319627831 6.587179111903122  C 61.68082319627831 6.587179111903122  61.68082319627831 6.589802293689138  61.68082319627831 6.589802293689138  C 61.32415248507006 5.318073490638462  60.629370535964384 4.166713252312953  59.670341738973924 3.2581199976554163  C 58.68422609658786 2.3215856976637794  57.47560969086833 1.6516609396812938  56.15856596214184 1.311577836517464  C 51.22947910363496 0.01300872061854133  31.481635061251428 0.013009012581598036  31.481635061251428 0.013009012581598036  C 23.24898432449807 -0.08061219837804438  15.018350426970095 0.3311571548404575  6.836200768717015 1.2459932881822255  C 5.519126846849782 1.6112013393881492  4.312768434378751 2.2960947378926906  3.3244228017089137 3.2397564742320952  C 2.3533034509227746 4.173676896164246  1.6498981139803355 5.325337199215993  1.2824475519891168 6.587179111903122  C 0.39976039052278556 11.340057079534999  -0.0291094278748368 16.166012926305015  0.001619888003261382 20.99998498894543  C -0.02987587459280838 25.8296126022092  0.3979415275648302 30.653992288249416  1.2824475519891168 35.412788989605914  C 1.6420241574427643 36.66938414780814  2.3428048422060135 37.81580035458256  3.316548806061056 38.74185060569605  C 4.2902927699161 39.667900856809545  5.5028801211877525 40.336860802714355  6.836200768717015 40.6910160268026  C 11.830903736152228 41.98696172636778  31.481635061251428 41.98696039726398  31.481635061251428 41.98696039726398  C 39.724764225814006 42.0807093487798  47.96588593761982 41.66894291885668  56.15856596214184 40.75397739335182  C 57.47560969086833 40.41389429018799  58.68422609658786 39.74396820310171  59.670341738973924 38.80743390311007  C 60.64146108976007 37.88138365199658  61.33174660751172 36.729722098023615  61.6781999911797 35.47575035615514  C 62.58393281041599 30.724704049911043  63.02432831137448 25.896748605580253  62.993146626374056 21.060321922787423  C 63.061267172240164 16.203422350673957  62.621437775559905 11.352702329358264  61.68082319627831 6.587179111903122  Z M 41.633769196569936 21.00260942165266  L 26 29.98240990329307  L 26 12.020182005462594  L 41.633769196569936 21.00260942165266  Z " fill-rule="nonzero" fill="rgba(36, 20, 0, 1)" stroke="none" transform="matrix(1 0 0 1 0 10 )" class="fill" />
    <path d="M 61.68082319627831 6.587179111903122  C 61.68082319627831 6.587179111903122  61.68082319627831 6.589802293689138  61.68082319627831 6.589802293689138  C 61.32415248507006 5.318073490638462  60.629370535964384 4.166713252312953  59.670341738973924 3.2581199976554163  C 58.68422609658786 2.3215856976637794  57.47560969086833 1.6516609396812938  56.15856596214184 1.311577836517464  C 51.22947910363496 0.01300872061854133  31.481635061251428 0.013009012581598036  31.481635061251428 0.013009012581598036  C 23.24898432449807 -0.08061219837804438  15.018350426970095 0.3311571548404575  6.836200768717015 1.2459932881822255  C 5.519126846849782 1.6112013393881492  4.312768434378751 2.2960947378926906  3.3244228017089137 3.2397564742320952  C 2.3533034509227746 4.173676896164246  1.6498981139803355 5.325337199215993  1.2824475519891168 6.587179111903122  C 0.39976039052278556 11.340057079534999  -0.0291094278748368 16.166012926305015  0.001619888003261382 20.99998498894543  C -0.02987587459280838 25.8296126022092  0.3979415275648302 30.653992288249416  1.2824475519891168 35.412788989605914  C 1.6420241574427643 36.66938414780814  2.3428048422060135 37.81580035458256  3.316548806061056 38.74185060569605  C 4.2902927699161 39.667900856809545  5.5028801211877525 40.336860802714355  6.836200768717015 40.6910160268026  C 11.830903736152228 41.98696172636778  31.481635061251428 41.98696039726398  31.481635061251428 41.98696039726398  C 39.724764225814006 42.0807093487798  47.96588593761982 41.66894291885668  56.15856596214184 40.75397739335182  C 57.47560969086833 40.41389429018799  58.68422609658786 39.74396820310171  59.670341738973924 38.80743390311007  C 60.64146108976007 37.88138365199658  61.33174660751172 36.729722098023615  61.6781999911797 35.47575035615514  C 62.58393281041599 30.724704049911043  63.02432831137448 25.896748605580253  62.993146626374056 21.060321922787423  C 63.061267172240164 16.203422350673957  62.621437775559905 11.352702329358264  61.68082319627831 6.587179111903122  Z " stroke-width="0" stroke-dasharray="0" stroke="rgba(121, 121, 121, 1)" fill="none" transform="matrix(1 0 0 1 0 10 )" class="stroke" mask="url(#Clip162)" />
    <path d="M 41.633769196569936 21.00260942165266  L 26 29.98240990329307  L 26 12.020182005462594  L 41.633769196569936 21.00260942165266  Z " stroke-width="0" stroke-dasharray="0" stroke="rgba(121, 121, 121, 1)" fill="none" transform="matrix(1 0 0 1 0 10 )" class="stroke" mask="url(#Clip162)" />
  </g>
</svg>