<?xml version="1.0" encoding="utf-8"?>
<svg version="1.1" xmlns:xlink="http://www.w3.org/1999/xlink" width="42px" height="33px" xmlns="http://www.w3.org/2000/svg">
  <defs>
    <pattern id="BGPattern" patternUnits="userSpaceOnUse" alignment="0 0" imageRepeat="None" />
    <mask fill="white" id="Clip152">
      <path d="M 41.732834798267334 11.582544335791223  C 41.732960141457106 11.583301323543662  43.26176975333935 11.186133857984757  39.003736371805836 9.96914990344651  C 38.83389635534576 8.68403705659396  38.80995682521056 6.470605049418982  39.99582874274937 5.727369273601117  C 40.01701174078421 5.713743493822257  40.03280412489755 5.694061482084007  40.05135491634124 5.677155422005421  C 41.02088445988548 5.365024144351517  41.691848635297596 4.926981034627998  41.1651565592155 4.33753991851728  C 41.1651565592155 4.33753991851728  26.863247972227075 0  26.863247972227075 0  C 26.863247972227075 0  3.705216646722653 3.2407907392890145  3.705216646722653 3.2407907392890145  C 3.705216646722653 3.2407907392890145  1.0533310032144638 3.622312343737183  1.2902296188317874 7.769343410030477  C 1.4188317282948675 10.02642846192178  2.1221322805629517 11.134912386868606  2.737191291671702 11.680448207462998  C 2.737191291671702 11.680448207462998  0.8368632502946518 12.25689440673479  0.8368632502946518 12.25689440673479  C 0.30941910985005966 12.846335522845507  0.9802558592730737 13.28450403604926  1.949910736916346 13.596130661703201  C 1.9683361849222107 13.613541379421749  1.983878718915908 13.633097019480072  2.0054377472642515 13.646722799258932  C 3.190557540672262 14.39058941263674  3.1677452254985763 16.603770191731385  2.9972784937171113 17.889135349543928  C -1.2602533123471131 19.10599320876216  0.2680558986381755 19.502527856769248  0.2680558986381755 19.502527856769248  C 0.2680558986381755 19.502527856769248  1.2019879581358777 19.730003814069867  1.2019879581358777 19.730003814069867  C 0.5450643097666709 20.327519482499902  -0.10734695336141914 21.460603846365203  0.014862653846631772 23.609566011585482  C 0.25188661850506266 27.755840024678857  2.430100395695663 28.04198207025472  2.430100395695663 28.04198207025472  C 2.430100395695663 28.04198207025472  17.584593324731554 33  17.584593324731554 33  C 17.584593324731554 33  40.458471627663734 27.42326987478673  40.458471627663734 27.42326987478673  C 40.458471627663734 27.42326987478673  41.98728369913649 27.0261028250602  37.72862346780294 25.80911887052195  C 37.55740467165897 24.525772320709255  37.533588189485826 22.31284463465434  38.72146557214576 21.567085568756685  C 38.74327528550201 21.553838283617793  38.75919212586765 21.533778600679312  38.776865515114295 21.517124870360707  C 39.74652039275757 21.204993592706803  40.416857240223344 20.767327806383626  39.89003983004221 20.177886690272906  C 39.89003983004221 20.177886690272906  38.89581683918336 19.87572380113773  38.89581683918336 19.87572380113773  C 39.55888227678331 19.473258642371384  40.55486148406205 18.42142436345927  40.71091374850943 15.689203242087729  C 40.818583546813315 13.809855009924863  40.331496889134634 12.70919332633737  39.76770323016515 12.061211796151557  C 39.76770323016515 12.061211796151557  41.732834798267334 11.582544335791223  41.732834798267334 11.582544335791223  Z M 19.70941045654046 14.963756652308387  L 19.871104234709538 9.916033934371162  L 23.71763439075919 9.120314711517358  L 36.716724364504856 6.431494203582191  C 36.716724364504856 6.431494203582191  38.653404315138296 6.030542850415773  38.653404315138296 6.030542850415773  C 38.03458504198534 7.17056642744044  38.060531763050975 8.730718434429907  38.16293714070151 9.733474862666064  C 38.185373571246906 9.960318854407097  38.21119319504903 10.167481613669636  38.23626183218558 10.324935068056469  C 38.23626183218558 10.324935068056469  36.11645949877699 10.855457544292037  36.11645949877699 10.855457544292037  L 19.70941045654046 14.963756652308387  Z M 3.839083266491516 17.653712499403504  C 3.9408619288206594 16.651713064207282  3.967309194352627 15.09118283141776  3.347988525035239 13.951159254393092  C 3.347988525035239 13.951159254393092  5.284415536275684 14.352109644999816  5.284415536275684 14.352109644999816  L 17.768220630000098 16.935204039903873  L 18.858832177297014 17.16002910780517  L 22.129412163295065 17.836650819628325  L 22.2907291621793 22.88449674520648  L 5.427808264790682 18.66164148279929  C 5.427808264790682 18.66164148279929  3.7653815566494524 18.245802218834267  3.7653815566494524 18.245802218834267  C 3.789823476596856 18.088096438447455  3.8156440903112374 17.881187313664487  3.839083266491516 17.653712499403504  Z M 4.101176053194641 10.793636185337425  C 4.043643532899379 10.789472752757774  2.662862821682031 10.661542193308353  2.5956788734836724 7.569751844526891  C 2.572239697303394 6.466694530339122  2.767524444717316 5.66895480444608  3.1622301217050817 5.263461703599984  C 3.413417855615391 5.004571888741632  3.7098543968808286 4.950700069665987  3.9131610383989726 4.950700069665987  C 4.020580146091682 4.950700069665987  4.097916985129949 4.965713113224904  4.103181398779205 4.965713113224904  C 4.103181398779205 4.965713113224904  14.081376037657162 8.240063496271159  14.081376037657162 8.240063496271159  L 19.059632585096608 9.873769863294354  L 18.896309284335207 14.956816596909283  L 4.930320946369016 11.015685231079079  C 4.930320946369016 11.015685231079079  4.193302891655782 10.807891694416583  4.193302891655782 10.807891694416583  C 4.166228763249463 10.800195652247226  4.129503612243745 10.794897831552321  4.101176053194641 10.793636185337425  Z M 17.78301065136914 25.714622460169565  L 17.620691457838927 30.797794326544814  C 17.620691457838927 30.797794326544814  2.9180616053711947 26.648744291291795  2.9180616053711947 26.648744291291795  C 2.890862135394803 26.64079591983246  2.8545126355475023 26.635497344552792  2.8261850764983985 26.63410953369291  C 2.7676498087004955 26.630198430403244  1.3862424718141861 26.50239479018357  1.3194345557970777 23.411361494602023  C 1.2956193511710667 22.306916409974356  1.491906797525898 21.50993322592139  1.885860410151164 21.10406162855533  C 2.137674874324937 20.84517181369698  2.4342367795735536 20.791299032061637  2.6371673889104486 20.791299032061637  C 2.7448371872143356 20.791299032061637  2.821923367860268 20.805808656900204  2.8275638113560744 20.805808656900204  C 2.8275638113560744 20.805808656900204  17.78301065136914 25.714622460169565  17.78301065136914 25.714622460169565  Z M 37.37778648864202 21.871015717491414  C 36.758340485225595 23.010913078876104  36.7840350289439 24.571696585185308  36.886565755635544 25.573696020381526  C 36.90975424494017 25.801297005162493  36.93557536855274 26.008079959425483  36.960644005689296 26.165785739812296  C 36.960644005689296 26.165785739812296  18.433417763344536 30.804986572583942  18.433417763344536 30.804986572583942  L 18.59536017758991 25.7571387218864  L 22.55632986921651 24.937447912394695  L 23.141307441422754 25.079887496022874  L 25.333810963539474 24.362641914842747  L 35.440356804609294 22.27222022385755  C 35.440356804609294 22.27222022385755  37.37778648864202 21.871015717491414  37.37778648864202 21.871015717491414  Z M 39.40772026856703 15.490367285944513  C 39.33878151597456 18.58114815024612  37.95737235989101 18.709583470265464  37.90710974404782 18.71349457355514  C 37.87339242837857 18.714251561307574  37.83967697673279 18.71879273335493  37.80796515233331 18.728885903074087  C 37.80796515233331 18.728885903074087  36.410638053906304 19.122645972761077  36.410638053906304 19.122645972761077  L 23.10571040563837 22.877810805566792  L 22.94301443282331 17.79476407195186  L 27.308216657287407 16.36165899555204  C 27.308216657287407 16.36165899555204  37.878030798632736 12.892006694281823  37.878030798632736 12.892006694281823  C 37.87940957364722 12.891375871174375  38.434051980297546 12.767356356852146  38.841166629614115 13.184078107577303  C 39.23524560622256 13.589571208423399  39.43078341443382 14.387309971756745  39.40772026856703 15.490367285944513  Z " fill-rule="evenodd" />
    </mask>
  </defs>
  <g transform="matrix(1 0 0 1 0 -5 )">
    <path d="M 41.732834798267334 11.582544335791223  C 41.732960141457106 11.583301323543662  43.26176975333935 11.186133857984757  39.003736371805836 9.96914990344651  C 38.83389635534576 8.68403705659396  38.80995682521056 6.470605049418982  39.99582874274937 5.727369273601117  C 40.01701174078421 5.713743493822257  40.03280412489755 5.694061482084007  40.05135491634124 5.677155422005421  C 41.02088445988548 5.365024144351517  41.691848635297596 4.926981034627998  41.1651565592155 4.33753991851728  C 41.1651565592155 4.33753991851728  26.863247972227075 0  26.863247972227075 0  C 26.863247972227075 0  3.705216646722653 3.2407907392890145  3.705216646722653 3.2407907392890145  C 3.705216646722653 3.2407907392890145  1.0533310032144638 3.622312343737183  1.2902296188317874 7.769343410030477  C 1.4188317282948675 10.02642846192178  2.1221322805629517 11.134912386868606  2.737191291671702 11.680448207462998  C 2.737191291671702 11.680448207462998  0.8368632502946518 12.25689440673479  0.8368632502946518 12.25689440673479  C 0.30941910985005966 12.846335522845507  0.9802558592730737 13.28450403604926  1.949910736916346 13.596130661703201  C 1.9683361849222107 13.613541379421749  1.983878718915908 13.633097019480072  2.0054377472642515 13.646722799258932  C 3.190557540672262 14.39058941263674  3.1677452254985763 16.603770191731385  2.9972784937171113 17.889135349543928  C -1.2602533123471131 19.10599320876216  0.2680558986381755 19.502527856769248  0.2680558986381755 19.502527856769248  C 0.2680558986381755 19.502527856769248  1.2019879581358777 19.730003814069867  1.2019879581358777 19.730003814069867  C 0.5450643097666709 20.327519482499902  -0.10734695336141914 21.460603846365203  0.014862653846631772 23.609566011585482  C 0.25188661850506266 27.755840024678857  2.430100395695663 28.04198207025472  2.430100395695663 28.04198207025472  C 2.430100395695663 28.04198207025472  17.584593324731554 33  17.584593324731554 33  C 17.584593324731554 33  40.458471627663734 27.42326987478673  40.458471627663734 27.42326987478673  C 40.458471627663734 27.42326987478673  41.98728369913649 27.0261028250602  37.72862346780294 25.80911887052195  C 37.55740467165897 24.525772320709255  37.533588189485826 22.31284463465434  38.72146557214576 21.567085568756685  C 38.74327528550201 21.553838283617793  38.75919212586765 21.533778600679312  38.776865515114295 21.517124870360707  C 39.74652039275757 21.204993592706803  40.416857240223344 20.767327806383626  39.89003983004221 20.177886690272906  C 39.89003983004221 20.177886690272906  38.89581683918336 19.87572380113773  38.89581683918336 19.87572380113773  C 39.55888227678331 19.473258642371384  40.55486148406205 18.42142436345927  40.71091374850943 15.689203242087729  C 40.818583546813315 13.809855009924863  40.331496889134634 12.70919332633737  39.76770323016515 12.061211796151557  C 39.76770323016515 12.061211796151557  41.732834798267334 11.582544335791223  41.732834798267334 11.582544335791223  Z M 19.70941045654046 14.963756652308387  L 19.871104234709538 9.916033934371162  L 23.71763439075919 9.120314711517358  L 36.716724364504856 6.431494203582191  C 36.716724364504856 6.431494203582191  38.653404315138296 6.030542850415773  38.653404315138296 6.030542850415773  C 38.03458504198534 7.17056642744044  38.060531763050975 8.730718434429907  38.16293714070151 9.733474862666064  C 38.185373571246906 9.960318854407097  38.21119319504903 10.167481613669636  38.23626183218558 10.324935068056469  C 38.23626183218558 10.324935068056469  36.11645949877699 10.855457544292037  36.11645949877699 10.855457544292037  L 19.70941045654046 14.963756652308387  Z M 3.839083266491516 17.653712499403504  C 3.9408619288206594 16.651713064207282  3.967309194352627 15.09118283141776  3.347988525035239 13.951159254393092  C 3.347988525035239 13.951159254393092  5.284415536275684 14.352109644999816  5.284415536275684 14.352109644999816  L 17.768220630000098 16.935204039903873  L 18.858832177297014 17.16002910780517  L 22.129412163295065 17.836650819628325  L 22.2907291621793 22.88449674520648  L 5.427808264790682 18.66164148279929  C 5.427808264790682 18.66164148279929  3.7653815566494524 18.245802218834267  3.7653815566494524 18.245802218834267  C 3.789823476596856 18.088096438447455  3.8156440903112374 17.881187313664487  3.839083266491516 17.653712499403504  Z M 4.101176053194641 10.793636185337425  C 4.043643532899379 10.789472752757774  2.662862821682031 10.661542193308353  2.5956788734836724 7.569751844526891  C 2.572239697303394 6.466694530339122  2.767524444717316 5.66895480444608  3.1622301217050817 5.263461703599984  C 3.413417855615391 5.004571888741632  3.7098543968808286 4.950700069665987  3.9131610383989726 4.950700069665987  C 4.020580146091682 4.950700069665987  4.097916985129949 4.965713113224904  4.103181398779205 4.965713113224904  C 4.103181398779205 4.965713113224904  14.081376037657162 8.240063496271159  14.081376037657162 8.240063496271159  L 19.059632585096608 9.873769863294354  L 18.896309284335207 14.956816596909283  L 4.930320946369016 11.015685231079079  C 4.930320946369016 11.015685231079079  4.193302891655782 10.807891694416583  4.193302891655782 10.807891694416583  C 4.166228763249463 10.800195652247226  4.129503612243745 10.794897831552321  4.101176053194641 10.793636185337425  Z M 17.78301065136914 25.714622460169565  L 17.620691457838927 30.797794326544814  C 17.620691457838927 30.797794326544814  2.9180616053711947 26.648744291291795  2.9180616053711947 26.648744291291795  C 2.890862135394803 26.64079591983246  2.8545126355475023 26.635497344552792  2.8261850764983985 26.63410953369291  C 2.7676498087004955 26.630198430403244  1.3862424718141861 26.50239479018357  1.3194345557970777 23.411361494602023  C 1.2956193511710667 22.306916409974356  1.491906797525898 21.50993322592139  1.885860410151164 21.10406162855533  C 2.137674874324937 20.84517181369698  2.4342367795735536 20.791299032061637  2.6371673889104486 20.791299032061637  C 2.7448371872143356 20.791299032061637  2.821923367860268 20.805808656900204  2.8275638113560744 20.805808656900204  C 2.8275638113560744 20.805808656900204  17.78301065136914 25.714622460169565  17.78301065136914 25.714622460169565  Z M 37.37778648864202 21.871015717491414  C 36.758340485225595 23.010913078876104  36.7840350289439 24.571696585185308  36.886565755635544 25.573696020381526  C 36.90975424494017 25.801297005162493  36.93557536855274 26.008079959425483  36.960644005689296 26.165785739812296  C 36.960644005689296 26.165785739812296  18.433417763344536 30.804986572583942  18.433417763344536 30.804986572583942  L 18.59536017758991 25.7571387218864  L 22.55632986921651 24.937447912394695  L 23.141307441422754 25.079887496022874  L 25.333810963539474 24.362641914842747  L 35.440356804609294 22.27222022385755  C 35.440356804609294 22.27222022385755  37.37778648864202 21.871015717491414  37.37778648864202 21.871015717491414  Z M 39.40772026856703 15.490367285944513  C 39.33878151597456 18.58114815024612  37.95737235989101 18.709583470265464  37.90710974404782 18.71349457355514  C 37.87339242837857 18.714251561307574  37.83967697673279 18.71879273335493  37.80796515233331 18.728885903074087  C 37.80796515233331 18.728885903074087  36.410638053906304 19.122645972761077  36.410638053906304 19.122645972761077  L 23.10571040563837 22.877810805566792  L 22.94301443282331 17.79476407195186  L 27.308216657287407 16.36165899555204  C 27.308216657287407 16.36165899555204  37.878030798632736 12.892006694281823  37.878030798632736 12.892006694281823  C 37.87940957364722 12.891375871174375  38.434051980297546 12.767356356852146  38.841166629614115 13.184078107577303  C 39.23524560622256 13.589571208423399  39.43078341443382 14.387309971756745  39.40772026856703 15.490367285944513  Z " fill-rule="nonzero" fill="rgba(77, 41, 0, 1)" stroke="none" transform="matrix(1 0 0 1 0 5 )" class="fill" />
    <path d="M 41.732834798267334 11.582544335791223  C 41.732960141457106 11.583301323543662  43.26176975333935 11.186133857984757  39.003736371805836 9.96914990344651  C 38.83389635534576 8.68403705659396  38.80995682521056 6.470605049418982  39.99582874274937 5.727369273601117  C 40.01701174078421 5.713743493822257  40.03280412489755 5.694061482084007  40.05135491634124 5.677155422005421  C 41.02088445988548 5.365024144351517  41.691848635297596 4.926981034627998  41.1651565592155 4.33753991851728  C 41.1651565592155 4.33753991851728  26.863247972227075 0  26.863247972227075 0  C 26.863247972227075 0  3.705216646722653 3.2407907392890145  3.705216646722653 3.2407907392890145  C 3.705216646722653 3.2407907392890145  1.0533310032144638 3.622312343737183  1.2902296188317874 7.769343410030477  C 1.4188317282948675 10.02642846192178  2.1221322805629517 11.134912386868606  2.737191291671702 11.680448207462998  C 2.737191291671702 11.680448207462998  0.8368632502946518 12.25689440673479  0.8368632502946518 12.25689440673479  C 0.30941910985005966 12.846335522845507  0.9802558592730737 13.28450403604926  1.949910736916346 13.596130661703201  C 1.9683361849222107 13.613541379421749  1.983878718915908 13.633097019480072  2.0054377472642515 13.646722799258932  C 3.190557540672262 14.39058941263674  3.1677452254985763 16.603770191731385  2.9972784937171113 17.889135349543928  C -1.2602533123471131 19.10599320876216  0.2680558986381755 19.502527856769248  0.2680558986381755 19.502527856769248  C 0.2680558986381755 19.502527856769248  1.2019879581358777 19.730003814069867  1.2019879581358777 19.730003814069867  C 0.5450643097666709 20.327519482499902  -0.10734695336141914 21.460603846365203  0.014862653846631772 23.609566011585482  C 0.25188661850506266 27.755840024678857  2.430100395695663 28.04198207025472  2.430100395695663 28.04198207025472  C 2.430100395695663 28.04198207025472  17.584593324731554 33  17.584593324731554 33  C 17.584593324731554 33  40.458471627663734 27.42326987478673  40.458471627663734 27.42326987478673  C 40.458471627663734 27.42326987478673  41.98728369913649 27.0261028250602  37.72862346780294 25.80911887052195  C 37.55740467165897 24.525772320709255  37.533588189485826 22.31284463465434  38.72146557214576 21.567085568756685  C 38.74327528550201 21.553838283617793  38.75919212586765 21.533778600679312  38.776865515114295 21.517124870360707  C 39.74652039275757 21.204993592706803  40.416857240223344 20.767327806383626  39.89003983004221 20.177886690272906  C 39.89003983004221 20.177886690272906  38.89581683918336 19.87572380113773  38.89581683918336 19.87572380113773  C 39.55888227678331 19.473258642371384  40.55486148406205 18.42142436345927  40.71091374850943 15.689203242087729  C 40.818583546813315 13.809855009924863  40.331496889134634 12.70919332633737  39.76770323016515 12.061211796151557  C 39.76770323016515 12.061211796151557  41.732834798267334 11.582544335791223  41.732834798267334 11.582544335791223  Z " stroke-width="0" stroke-dasharray="0" stroke="rgba(121, 121, 121, 1)" fill="none" transform="matrix(1 0 0 1 0 5 )" class="stroke" mask="url(#Clip152)" />
    <path d="M 19.70941045654046 14.963756652308387  L 19.871104234709538 9.916033934371162  L 23.71763439075919 9.120314711517358  L 36.716724364504856 6.431494203582191  C 36.716724364504856 6.431494203582191  38.653404315138296 6.030542850415773  38.653404315138296 6.030542850415773  C 38.03458504198534 7.17056642744044  38.060531763050975 8.730718434429907  38.16293714070151 9.733474862666064  C 38.185373571246906 9.960318854407097  38.21119319504903 10.167481613669636  38.23626183218558 10.324935068056469  C 38.23626183218558 10.324935068056469  36.11645949877699 10.855457544292037  36.11645949877699 10.855457544292037  L 19.70941045654046 14.963756652308387  Z " stroke-width="0" stroke-dasharray="0" stroke="rgba(121, 121, 121, 1)" fill="none" transform="matrix(1 0 0 1 0 5 )" class="stroke" mask="url(#Clip152)" />
    <path d="M 3.839083266491516 17.653712499403504  C 3.9408619288206594 16.651713064207282  3.967309194352627 15.09118283141776  3.347988525035239 13.951159254393092  C 3.347988525035239 13.951159254393092  5.284415536275684 14.352109644999816  5.284415536275684 14.352109644999816  L 17.768220630000098 16.935204039903873  L 18.858832177297014 17.16002910780517  L 22.129412163295065 17.836650819628325  L 22.2907291621793 22.88449674520648  L 5.427808264790682 18.66164148279929  C 5.427808264790682 18.66164148279929  3.7653815566494524 18.245802218834267  3.7653815566494524 18.245802218834267  C 3.789823476596856 18.088096438447455  3.8156440903112374 17.881187313664487  3.839083266491516 17.653712499403504  Z " stroke-width="0" stroke-dasharray="0" stroke="rgba(121, 121, 121, 1)" fill="none" transform="matrix(1 0 0 1 0 5 )" class="stroke" mask="url(#Clip152)" />
    <path d="M 4.101176053194641 10.793636185337425  C 4.043643532899379 10.789472752757774  2.662862821682031 10.661542193308353  2.5956788734836724 7.569751844526891  C 2.572239697303394 6.466694530339122  2.767524444717316 5.66895480444608  3.1622301217050817 5.263461703599984  C 3.413417855615391 5.004571888741632  3.7098543968808286 4.950700069665987  3.9131610383989726 4.950700069665987  C 4.020580146091682 4.950700069665987  4.097916985129949 4.965713113224904  4.103181398779205 4.965713113224904  C 4.103181398779205 4.965713113224904  14.081376037657162 8.240063496271159  14.081376037657162 8.240063496271159  L 19.059632585096608 9.873769863294354  L 18.896309284335207 14.956816596909283  L 4.930320946369016 11.015685231079079  C 4.930320946369016 11.015685231079079  4.193302891655782 10.807891694416583  4.193302891655782 10.807891694416583  C 4.166228763249463 10.800195652247226  4.129503612243745 10.794897831552321  4.101176053194641 10.793636185337425  Z " stroke-width="0" stroke-dasharray="0" stroke="rgba(121, 121, 121, 1)" fill="none" transform="matrix(1 0 0 1 0 5 )" class="stroke" mask="url(#Clip152)" />
    <path d="M 17.78301065136914 25.714622460169565  L 17.620691457838927 30.797794326544814  C 17.620691457838927 30.797794326544814  2.9180616053711947 26.648744291291795  2.9180616053711947 26.648744291291795  C 2.890862135394803 26.64079591983246  2.8545126355475023 26.635497344552792  2.8261850764983985 26.63410953369291  C 2.7676498087004955 26.630198430403244  1.3862424718141861 26.50239479018357  1.3194345557970777 23.411361494602023  C 1.2956193511710667 22.306916409974356  1.491906797525898 21.50993322592139  1.885860410151164 21.10406162855533  C 2.137674874324937 20.84517181369698  2.4342367795735536 20.791299032061637  2.6371673889104486 20.791299032061637  C 2.7448371872143356 20.791299032061637  2.821923367860268 20.805808656900204  2.8275638113560744 20.805808656900204  C 2.8275638113560744 20.805808656900204  17.78301065136914 25.714622460169565  17.78301065136914 25.714622460169565  Z " stroke-width="0" stroke-dasharray="0" stroke="rgba(121, 121, 121, 1)" fill="none" transform="matrix(1 0 0 1 0 5 )" class="stroke" mask="url(#Clip152)" />
    <path d="M 37.37778648864202 21.871015717491414  C 36.758340485225595 23.010913078876104  36.7840350289439 24.571696585185308  36.886565755635544 25.573696020381526  C 36.90975424494017 25.801297005162493  36.93557536855274 26.008079959425483  36.960644005689296 26.165785739812296  C 36.960644005689296 26.165785739812296  18.433417763344536 30.804986572583942  18.433417763344536 30.804986572583942  L 18.59536017758991 25.7571387218864  L 22.55632986921651 24.937447912394695  L 23.141307441422754 25.079887496022874  L 25.333810963539474 24.362641914842747  L 35.440356804609294 22.27222022385755  C 35.440356804609294 22.27222022385755  37.37778648864202 21.871015717491414  37.37778648864202 21.871015717491414  Z " stroke-width="0" stroke-dasharray="0" stroke="rgba(121, 121, 121, 1)" fill="none" transform="matrix(1 0 0 1 0 5 )" class="stroke" mask="url(#Clip152)" />
    <path d="M 39.40772026856703 15.490367285944513  C 39.33878151597456 18.58114815024612  37.95737235989101 18.709583470265464  37.90710974404782 18.71349457355514  C 37.87339242837857 18.714251561307574  37.83967697673279 18.71879273335493  37.80796515233331 18.728885903074087  C 37.80796515233331 18.728885903074087  36.410638053906304 19.122645972761077  36.410638053906304 19.122645972761077  L 23.10571040563837 22.877810805566792  L 22.94301443282331 17.79476407195186  L 27.308216657287407 16.36165899555204  C 27.308216657287407 16.36165899555204  37.878030798632736 12.892006694281823  37.878030798632736 12.892006694281823  C 37.87940957364722 12.891375871174375  38.434051980297546 12.767356356852146  38.841166629614115 13.184078107577303  C 39.23524560622256 13.589571208423399  39.43078341443382 14.387309971756745  39.40772026856703 15.490367285944513  Z " stroke-width="0" stroke-dasharray="0" stroke="rgba(121, 121, 121, 1)" fill="none" transform="matrix(1 0 0 1 0 5 )" class="stroke" mask="url(#Clip152)" />
  </g>
</svg>