<?xml version="1.0" encoding="utf-8"?>
<svg version="1.1" xmlns:xlink="http://www.w3.org/1999/xlink" width="63px" height="63px" xmlns="http://www.w3.org/2000/svg">
  <defs>
    <pattern id="BGPattern" patternUnits="userSpaceOnUse" alignment="0 0" imageRepeat="None" />
    <mask fill="white" id="Clip158">
      <path d="M 31.5 0  C 14.175000250339508 0  0 14.253750801086426  0 31.67587602138519  C 0 47.33662623167038  11.374125480651855 60.35924988985062  26.25 63  C 26.25 63  26.25 40.249125480651855  26.25 40.249125480651855  C 26.25 40.249125480651855  18.375 40.249125480651855  18.375 40.249125480651855  C 18.375 40.249125480651855  18.375 31.5  18.375 31.5  C 18.375 31.5  26.25 31.5  26.25 31.5  C 26.25 31.5  26.25 24.499125480651855  26.25 24.499125480651855  C 26.25 16.624125480651855  31.324124604463577 12.250874519348145  38.500874519348145 12.250874519348145  C 40.77412451058626 12.250874519348145  43.22587548941374 12.60000022687018  45.499125480651855 12.949125230312347  C 45.499125480651855 12.949125230312347  45.499125480651855 21  45.499125480651855 21  C 45.499125480651855 21  41.475000500679016 21  41.475000500679016 21  C 37.624125480651855 21  36.75 22.924124479293823  36.75 25.375874519348145  C 36.75 25.375874519348145  36.75 31.5  36.75 31.5  C 36.75 31.5  45.150002002716064 31.5  45.150002002716064 31.5  C 45.150002002716064 31.5  43.750874519348145 40.249125480651855  43.750874519348145 40.249125480651855  C 43.750874519348145 40.249125480651855  36.75 40.249125480651855  36.75 40.249125480651855  C 36.75 40.249125480651855  36.75 63  36.75 63  C 51.625874519348145 60.35924988985062  63 47.33925104141235  63 31.67587602138519  C 63 14.253750801086426  48.82499974966049 0  31.5 0  Z " fill-rule="evenodd" />
    </mask>
  </defs>
  <g>
    <path d="M 31.5 0  C 14.175000250339508 0  0 14.253750801086426  0 31.67587602138519  C 0 47.33662623167038  11.374125480651855 60.35924988985062  26.25 63  C 26.25 63  26.25 40.249125480651855  26.25 40.249125480651855  C 26.25 40.249125480651855  18.375 40.249125480651855  18.375 40.249125480651855  C 18.375 40.249125480651855  18.375 31.5  18.375 31.5  C 18.375 31.5  26.25 31.5  26.25 31.5  C 26.25 31.5  26.25 24.499125480651855  26.25 24.499125480651855  C 26.25 16.624125480651855  31.324124604463577 12.250874519348145  38.500874519348145 12.250874519348145  C 40.77412451058626 12.250874519348145  43.22587548941374 12.60000022687018  45.499125480651855 12.949125230312347  C 45.499125480651855 12.949125230312347  45.499125480651855 21  45.499125480651855 21  C 45.499125480651855 21  41.475000500679016 21  41.475000500679016 21  C 37.624125480651855 21  36.75 22.924124479293823  36.75 25.375874519348145  C 36.75 25.375874519348145  36.75 31.5  36.75 31.5  C 36.75 31.5  45.150002002716064 31.5  45.150002002716064 31.5  C 45.150002002716064 31.5  43.750874519348145 40.249125480651855  43.750874519348145 40.249125480651855  C 43.750874519348145 40.249125480651855  36.75 40.249125480651855  36.75 40.249125480651855  C 36.75 40.249125480651855  36.75 63  36.75 63  C 51.625874519348145 60.35924988985062  63 47.33925104141235  63 31.67587602138519  C 63 14.253750801086426  48.82499974966049 0  31.5 0  Z " fill-rule="nonzero" fill="rgba(36, 20, 0, 1)" stroke="none" class="fill" />
    <path d="M 31.5 0  C 14.175000250339508 0  0 14.253750801086426  0 31.67587602138519  C 0 47.33662623167038  11.374125480651855 60.35924988985062  26.25 63  C 26.25 63  26.25 40.249125480651855  26.25 40.249125480651855  C 26.25 40.249125480651855  18.375 40.249125480651855  18.375 40.249125480651855  C 18.375 40.249125480651855  18.375 31.5  18.375 31.5  C 18.375 31.5  26.25 31.5  26.25 31.5  C 26.25 31.5  26.25 24.499125480651855  26.25 24.499125480651855  C 26.25 16.624125480651855  31.324124604463577 12.250874519348145  38.500874519348145 12.250874519348145  C 40.77412451058626 12.250874519348145  43.22587548941374 12.60000022687018  45.499125480651855 12.949125230312347  C 45.499125480651855 12.949125230312347  45.499125480651855 21  45.499125480651855 21  C 45.499125480651855 21  41.475000500679016 21  41.475000500679016 21  C 37.624125480651855 21  36.75 22.924124479293823  36.75 25.375874519348145  C 36.75 25.375874519348145  36.75 31.5  36.75 31.5  C 36.75 31.5  45.150002002716064 31.5  45.150002002716064 31.5  C 45.150002002716064 31.5  43.750874519348145 40.249125480651855  43.750874519348145 40.249125480651855  C 43.750874519348145 40.249125480651855  36.75 40.249125480651855  36.75 40.249125480651855  C 36.75 40.249125480651855  36.75 63  36.75 63  C 51.625874519348145 60.35924988985062  63 47.33925104141235  63 31.67587602138519  C 63 14.253750801086426  48.82499974966049 0  31.5 0  Z " stroke-width="0" stroke-dasharray="0" stroke="rgba(121, 121, 121, 1)" fill="none" class="stroke" mask="url(#Clip158)" />
  </g>
</svg>