<?xml version="1.0" encoding="utf-8"?>
<svg version="1.1" xmlns:xlink="http://www.w3.org/1999/xlink" width="32px" height="28px" xmlns="http://www.w3.org/2000/svg">
  <defs>
    <pattern id="BGPattern" patternUnits="userSpaceOnUse" alignment="0 0" imageRepeat="None" />
    <mask fill="white" id="Clip154">
      <path d="M 16 4.710229828052762  C 16 4.710229828052762  12.417599868774413 0  8 0  C 3.5824001312255858 0  0 3.4792895177629113  0 7.771878916818709  C 0 11.237038020608342  1.4 19.461100291628696  15.180799865722657 27.774656057929157  C 15.427651238441467 27.922044996750234  15.711044931411744 28  16 28  C 16.28895506858826 28  16.572348761558533 27.922044996750234  16.819200134277345 27.774656057929157  C 30.6 19.461100291628696  32 11.237038020608342  32 7.771878916818709  C 32 3.4792895177629113  28.417599868774413 0  24 0  C 19.582400131225587 0  16 4.710229828052762  16 4.710229828052762  Z " fill-rule="evenodd" />
    </mask>
  </defs>
  <g transform="matrix(1 0 0 1 -3 -5 )">
    <path d="M 16 4.710229828052762  C 16 4.710229828052762  12.417599868774413 0  8 0  C 3.5824001312255858 0  0 3.4792895177629113  0 7.771878916818709  C 0 11.237038020608342  1.4 19.461100291628696  15.180799865722657 27.774656057929157  C 15.427651238441467 27.922044996750234  15.711044931411744 28  16 28  C 16.28895506858826 28  16.572348761558533 27.922044996750234  16.819200134277345 27.774656057929157  C 30.6 19.461100291628696  32 11.237038020608342  32 7.771878916818709  C 32 3.4792895177629113  28.417599868774413 0  24 0  C 19.582400131225587 0  16 4.710229828052762  16 4.710229828052762  Z " fill-rule="nonzero" fill="rgba(255, 255, 255, 0)" stroke="none" transform="matrix(1 0 0 1 3 5 )" class="fill" />
    <path d="M 16 4.710229828052762  C 16 4.710229828052762  12.417599868774413 0  8 0  C 3.5824001312255858 0  0 3.4792895177629113  0 7.771878916818709  C 0 11.237038020608342  1.4 19.461100291628696  15.180799865722657 27.774656057929157  C 15.427651238441467 27.922044996750234  15.711044931411744 28  16 28  C 16.28895506858826 28  16.572348761558533 27.922044996750234  16.819200134277345 27.774656057929157  C 30.6 19.461100291628696  32 11.237038020608342  32 7.771878916818709  C 32 3.4792895177629113  28.417599868774413 0  24 0  C 19.582400131225587 0  16 4.710229828052762  16 4.710229828052762  Z " stroke-width="4" stroke-dasharray="0" stroke="rgba(225, 106, 0, 1)" fill="none" transform="matrix(1 0 0 1 3 5 )" class="stroke" mask="url(#Clip154)" />
  </g>
</svg>