<?xml version="1.0" encoding="utf-8"?>
<svg version="1.1" xmlns:xlink="http://www.w3.org/1999/xlink" width="63px" height="63px" xmlns="http://www.w3.org/2000/svg">
  <defs>
    <pattern id="BGPattern" patternUnits="userSpaceOnUse" alignment="0 0" imageRepeat="None" />
    <mask fill="white" id="Clip172">
      <path d="M 63 21.83078641700253  C 63 4.183463088592383  58.77519275540091 0  41.1692117055098 0  C 41.1692117055098 0  21.8307882944902 0  21.8307882944902 0  C 4.183464966080054 0  0 4.183463088592383  0 21.83078641700253  C 0 21.83078641700253  0 41.16921546048514  0 41.16921546048514  C 0 58.816538788895286  4.183464966080054 63  21.8307882944902 63  C 21.8307882944902 63  41.1692117055098 63  41.1692117055098 63  C 58.81653503391995 63  63 58.816538788895286  63 41.16921546048514  C 63 41.16921546048514  63 21.83078641700253  63 21.83078641700253  Z M 50.85319172904098 44.93925200891181  C 50.85319172904098 44.93925200891181  50.85909830525446 44.94121961599119  50.85909830525446 44.94121961599119  C 50.85909830525446 44.94121961599119  46.28583498135029 44.94121961599119  46.28583498135029 44.94121961599119  C 44.55338909993242 44.94121961599119  44.01987211179813 43.56707488985405  40.903438305755124 40.40929857060605  C 38.19649160137182 37.78503689263274  36.997560361228636 37.436582221443416  36.33017498185096 37.436582221443416  C 35.38717318024508 37.436582221443416  35.11943199739655 37.702354799797234  35.11943199739655 38.995783162690564  C 35.11943199739655 38.995783162690564  35.11943199739655 43.12805842741633  35.11943199739655 43.12805842741633  C 35.11943199739655 44.23643010582773  34.77097450997572 44.90184869952687  31.837628607905472 44.90184869952687  C 26.98678013993542 44.90184869952687  21.60438815805943 41.96850138934087  17.830412171126746 36.50342203419531  C 12.13893361829424 28.494797481663205  10.581700753498385 22.496203485242944  10.581700753498385 21.255929731894756  C 10.581700753498385 20.588544352517083  10.847473214509225 19.964469797481662  12.129089481062408 19.964469797481662  C 12.129089481062408 19.964469797481662  16.71219741157033 19.964469797481662  16.71219741157033 19.964469797481662  C 17.871754919017697 19.964469797481662  18.31274080735099 20.49798443875635  18.763570480887175 21.73825819210454  C 21.029531003579745 28.28021002828748  24.80350722519839 34.011060905700056  26.360739855308285 34.011060905700056  C 26.93559689244499 34.011060905700056  27.20136994017073 33.745289618119  27.20136994017073 32.27861666708388  C 27.20136994017073 32.27861666708388  27.20136994017073 25.52207737752522  27.20136994017073 25.52207737752522  C 27.026156659527 22.405643571482216  25.386239267028813 22.137901508561345  25.386239267028813 21.031498610659124  C 25.386239267028813 20.497984028055924  25.82722585941998 19.964469797481662  26.53398503016497 19.964469797481662  C 26.53398503016497 19.964469797481662  33.74135229178662 19.964469797481662  33.74135229178662 19.964469797481662  C 34.71585311475204 19.964469797481662  35.074154504718756 20.497984556099333  35.074154504718756 21.645729967206545  C 35.074154504718756 21.645729967206545  35.074154504718756 30.760758004355772  35.074154504718756 30.760758004355772  C 35.074154504718756 31.74510226049516  35.51513924895799 32.09356021728791  35.7809122086765 32.09356021728791  C 36.35576924581321 32.09356021728791  36.84794172591183 31.745102612524096  37.913002227952035 30.678073447317693  C 41.20464951998898 26.986782486795  43.56313991038126 21.295304403334416  43.56313991038126 21.295304403334416  C 43.87025532463327 20.627919023956743  44.40376764838411 20.00384446892132  45.56332515583148 20.00384446892132  C 45.56332515583148 20.00384446892132  50.14643402508324 20.00384446892132  50.14643402508324 20.00384446892132  C 51.52057863387739 20.00384446892132  51.827693930786424 20.710604050366737  51.520578516534414 21.694948306506124  C 50.945721479397704 24.36055249768443  45.33692642751646 32.27664906000451  45.33692642751646 32.27664906000451  C 44.854597732620725 33.075936572990464  44.66954104813879 33.424393062995975  45.33692642751646 34.31620897689438  C 45.82909855558615 34.98359435627205  47.42964247941023 36.36758415838486  48.49470298145043 37.60785791173304  C 50.453548060555235 39.83247592122062  51.95959615240193 41.69879113262573  52.361208601396854 42.99025083235287  C 52.812038274933045 44.27186709890606  52.14662009193431 44.93925200891181  50.85319172904098 44.93925200891181  Z " fill-rule="evenodd" />
    </mask>
  </defs>
  <g>
    <path d="M 63 21.83078641700253  C 63 4.183463088592383  58.77519275540091 0  41.1692117055098 0  C 41.1692117055098 0  21.8307882944902 0  21.8307882944902 0  C 4.183464966080054 0  0 4.183463088592383  0 21.83078641700253  C 0 21.83078641700253  0 41.16921546048514  0 41.16921546048514  C 0 58.816538788895286  4.183464966080054 63  21.8307882944902 63  C 21.8307882944902 63  41.1692117055098 63  41.1692117055098 63  C 58.81653503391995 63  63 58.816538788895286  63 41.16921546048514  C 63 41.16921546048514  63 21.83078641700253  63 21.83078641700253  Z M 50.85319172904098 44.93925200891181  C 50.85319172904098 44.93925200891181  50.85909830525446 44.94121961599119  50.85909830525446 44.94121961599119  C 50.85909830525446 44.94121961599119  46.28583498135029 44.94121961599119  46.28583498135029 44.94121961599119  C 44.55338909993242 44.94121961599119  44.01987211179813 43.56707488985405  40.903438305755124 40.40929857060605  C 38.19649160137182 37.78503689263274  36.997560361228636 37.436582221443416  36.33017498185096 37.436582221443416  C 35.38717318024508 37.436582221443416  35.11943199739655 37.702354799797234  35.11943199739655 38.995783162690564  C 35.11943199739655 38.995783162690564  35.11943199739655 43.12805842741633  35.11943199739655 43.12805842741633  C 35.11943199739655 44.23643010582773  34.77097450997572 44.90184869952687  31.837628607905472 44.90184869952687  C 26.98678013993542 44.90184869952687  21.60438815805943 41.96850138934087  17.830412171126746 36.50342203419531  C 12.13893361829424 28.494797481663205  10.581700753498385 22.496203485242944  10.581700753498385 21.255929731894756  C 10.581700753498385 20.588544352517083  10.847473214509225 19.964469797481662  12.129089481062408 19.964469797481662  C 12.129089481062408 19.964469797481662  16.71219741157033 19.964469797481662  16.71219741157033 19.964469797481662  C 17.871754919017697 19.964469797481662  18.31274080735099 20.49798443875635  18.763570480887175 21.73825819210454  C 21.029531003579745 28.28021002828748  24.80350722519839 34.011060905700056  26.360739855308285 34.011060905700056  C 26.93559689244499 34.011060905700056  27.20136994017073 33.745289618119  27.20136994017073 32.27861666708388  C 27.20136994017073 32.27861666708388  27.20136994017073 25.52207737752522  27.20136994017073 25.52207737752522  C 27.026156659527 22.405643571482216  25.386239267028813 22.137901508561345  25.386239267028813 21.031498610659124  C 25.386239267028813 20.497984028055924  25.82722585941998 19.964469797481662  26.53398503016497 19.964469797481662  C 26.53398503016497 19.964469797481662  33.74135229178662 19.964469797481662  33.74135229178662 19.964469797481662  C 34.71585311475204 19.964469797481662  35.074154504718756 20.497984556099333  35.074154504718756 21.645729967206545  C 35.074154504718756 21.645729967206545  35.074154504718756 30.760758004355772  35.074154504718756 30.760758004355772  C 35.074154504718756 31.74510226049516  35.51513924895799 32.09356021728791  35.7809122086765 32.09356021728791  C 36.35576924581321 32.09356021728791  36.84794172591183 31.745102612524096  37.913002227952035 30.678073447317693  C 41.20464951998898 26.986782486795  43.56313991038126 21.295304403334416  43.56313991038126 21.295304403334416  C 43.87025532463327 20.627919023956743  44.40376764838411 20.00384446892132  45.56332515583148 20.00384446892132  C 45.56332515583148 20.00384446892132  50.14643402508324 20.00384446892132  50.14643402508324 20.00384446892132  C 51.52057863387739 20.00384446892132  51.827693930786424 20.710604050366737  51.520578516534414 21.694948306506124  C 50.945721479397704 24.36055249768443  45.33692642751646 32.27664906000451  45.33692642751646 32.27664906000451  C 44.854597732620725 33.075936572990464  44.66954104813879 33.424393062995975  45.33692642751646 34.31620897689438  C 45.82909855558615 34.98359435627205  47.42964247941023 36.36758415838486  48.49470298145043 37.60785791173304  C 50.453548060555235 39.83247592122062  51.95959615240193 41.69879113262573  52.361208601396854 42.99025083235287  C 52.812038274933045 44.27186709890606  52.14662009193431 44.93925200891181  50.85319172904098 44.93925200891181  Z " fill-rule="nonzero" fill="rgba(36, 20, 0, 1)" stroke="none" class="fill" />
    <path d="M 63 21.83078641700253  C 63 4.183463088592383  58.77519275540091 0  41.1692117055098 0  C 41.1692117055098 0  21.8307882944902 0  21.8307882944902 0  C 4.183464966080054 0  0 4.183463088592383  0 21.83078641700253  C 0 21.83078641700253  0 41.16921546048514  0 41.16921546048514  C 0 58.816538788895286  4.183464966080054 63  21.8307882944902 63  C 21.8307882944902 63  41.1692117055098 63  41.1692117055098 63  C 58.81653503391995 63  63 58.816538788895286  63 41.16921546048514  C 63 41.16921546048514  63 21.83078641700253  63 21.83078641700253  Z " stroke-width="0" stroke-dasharray="0" stroke="rgba(121, 121, 121, 1)" fill="none" class="stroke" mask="url(#Clip172)" />
    <path d="M 50.85319172904098 44.93925200891181  C 50.85319172904098 44.93925200891181  50.85909830525446 44.94121961599119  50.85909830525446 44.94121961599119  C 50.85909830525446 44.94121961599119  46.28583498135029 44.94121961599119  46.28583498135029 44.94121961599119  C 44.55338909993242 44.94121961599119  44.01987211179813 43.56707488985405  40.903438305755124 40.40929857060605  C 38.19649160137182 37.78503689263274  36.997560361228636 37.436582221443416  36.33017498185096 37.436582221443416  C 35.38717318024508 37.436582221443416  35.11943199739655 37.702354799797234  35.11943199739655 38.995783162690564  C 35.11943199739655 38.995783162690564  35.11943199739655 43.12805842741633  35.11943199739655 43.12805842741633  C 35.11943199739655 44.23643010582773  34.77097450997572 44.90184869952687  31.837628607905472 44.90184869952687  C 26.98678013993542 44.90184869952687  21.60438815805943 41.96850138934087  17.830412171126746 36.50342203419531  C 12.13893361829424 28.494797481663205  10.581700753498385 22.496203485242944  10.581700753498385 21.255929731894756  C 10.581700753498385 20.588544352517083  10.847473214509225 19.964469797481662  12.129089481062408 19.964469797481662  C 12.129089481062408 19.964469797481662  16.71219741157033 19.964469797481662  16.71219741157033 19.964469797481662  C 17.871754919017697 19.964469797481662  18.31274080735099 20.49798443875635  18.763570480887175 21.73825819210454  C 21.029531003579745 28.28021002828748  24.80350722519839 34.011060905700056  26.360739855308285 34.011060905700056  C 26.93559689244499 34.011060905700056  27.20136994017073 33.745289618119  27.20136994017073 32.27861666708388  C 27.20136994017073 32.27861666708388  27.20136994017073 25.52207737752522  27.20136994017073 25.52207737752522  C 27.026156659527 22.405643571482216  25.386239267028813 22.137901508561345  25.386239267028813 21.031498610659124  C 25.386239267028813 20.497984028055924  25.82722585941998 19.964469797481662  26.53398503016497 19.964469797481662  C 26.53398503016497 19.964469797481662  33.74135229178662 19.964469797481662  33.74135229178662 19.964469797481662  C 34.71585311475204 19.964469797481662  35.074154504718756 20.497984556099333  35.074154504718756 21.645729967206545  C 35.074154504718756 21.645729967206545  35.074154504718756 30.760758004355772  35.074154504718756 30.760758004355772  C 35.074154504718756 31.74510226049516  35.51513924895799 32.09356021728791  35.7809122086765 32.09356021728791  C 36.35576924581321 32.09356021728791  36.84794172591183 31.745102612524096  37.913002227952035 30.678073447317693  C 41.20464951998898 26.986782486795  43.56313991038126 21.295304403334416  43.56313991038126 21.295304403334416  C 43.87025532463327 20.627919023956743  44.40376764838411 20.00384446892132  45.56332515583148 20.00384446892132  C 45.56332515583148 20.00384446892132  50.14643402508324 20.00384446892132  50.14643402508324 20.00384446892132  C 51.52057863387739 20.00384446892132  51.827693930786424 20.710604050366737  51.520578516534414 21.694948306506124  C 50.945721479397704 24.36055249768443  45.33692642751646 32.27664906000451  45.33692642751646 32.27664906000451  C 44.854597732620725 33.075936572990464  44.66954104813879 33.424393062995975  45.33692642751646 34.31620897689438  C 45.82909855558615 34.98359435627205  47.42964247941023 36.36758415838486  48.49470298145043 37.60785791173304  C 50.453548060555235 39.83247592122062  51.95959615240193 41.69879113262573  52.361208601396854 42.99025083235287  C 52.812038274933045 44.27186709890606  52.14662009193431 44.93925200891181  50.85319172904098 44.93925200891181  Z " stroke-width="0" stroke-dasharray="0" stroke="rgba(121, 121, 121, 1)" fill="none" class="stroke" mask="url(#Clip172)" />
  </g>
</svg>