<?xml version="1.0" encoding="utf-8"?>
<svg version="1.1" xmlns:xlink="http://www.w3.org/1999/xlink" width="58px" height="58px" xmlns="http://www.w3.org/2000/svg">
  <defs>
    <pattern id="BGPattern" patternUnits="userSpaceOnUse" alignment="0 0" imageRepeat="None" />
    <mask fill="white" id="Clip173">
      <path d="M 17.041455138813365 0.17399995977228339  C 17.041455138813365 0.17399995977228339  17.044091311368074 0.17399995977228339  17.044091311368074 0.17399995977228339  C 20.136545798995275 0.03163631971586834  21.122545675797895 0  29 0  C 36.8774543242021 0  37.86345545812086 0.03427268869497558  40.95327377319336 0.17399995977228339  C 44.04309208826586 0.3137272308495912  46.15218020027334 0.8067273362116382  47.997634714299984 1.5211818760091609  C 49.93008920821276 2.2514546296813274  51.68327092582529 3.3929996869780807  53.133270957253195 4.869363329627297  C 54.609634599902414 6.316727031360974  55.7485478059812 8.067273047837343  56.47618415138938 10.002364028583873  C 57.193275099450894 11.847818542610515  57.6836364001713 13.956909797408365  57.82600004022772 17.04145513881337  C 57.968363680284135 20.139182285829026  58 21.125181848352604  58 29  C 58 36.877454324202105  57.965727311305024 37.86345420100473  57.82600004022772 40.95590868863193  C 57.686272769150406 44.04045403003693  57.193275099450894 46.14954528483478  56.47618415138938 47.99499979886142  C 55.74852588501844 49.93033858862791  54.60773745450106 51.68379812890833  53.133270957253195 53.1332709572532  C 51.68327092582529 54.609634599902414  49.93008920821276 55.748547805981204  47.997634714299984 56.47618415138938  C 46.15218020027334 57.193275099450894  44.04308894547549 57.6836364001713  40.95854360407049 57.82600004022772  C 37.86345262960955 57.968363680284135  36.8774543242021 58  29 58  C 21.122545675797895 58  20.136545798995275 57.96572731130503  17.044091311368074 57.82600004022772  C 13.959545969963074 57.68627276915041  11.850454715165226 57.193275099450894  10.005000201138584 56.47618415138938  C 8.069699753414502 55.74845006520098  6.316253727132623 54.607671613043  4.866727157072588 53.1332709572532  C 3.3913652788509023 51.685037174008116  2.2496479180726134 49.932424458590425  1.5211818760091609 47.997634714299984  C 0.8067273362116381 46.15218020027334  0.31636359982869844 44.043088945475496  0.17399995977228336 40.95854360407049  C 0.03163631971586834 37.86081645705484  0 36.874818151647396  0 29  C 0 21.122545675797895  0.034272688694975594 20.13654579899528  0.17399995977228336 17.046727483922787  C 0.31372723084959114 13.956909168850295  0.8067273362116381 11.847818542610515  1.5211818760091609 10.002364028583873  C 2.2507237737829033 8.067487700418992  3.39331302317706 6.314916784113105  4.869363329627297 4.866727157072588  C 6.316833571954207 3.3916849006306045  8.068517435680738 2.249987182292072  10.002364028583875 1.5211818760091609  C 11.847818542610517 0.8067273362116382  13.956909797408365 0.31636359982869844  17.041455138813365 0.17399995977228339  Z M 46.10472956570712 6.393181692470204  C 45.08182044462725 5.995090801607478  43.54745362021706 5.523181824860248  40.71863555908203 5.39400001005693  C 37.66045382889834 5.254272738979622  36.74300009554083 5.225273023952138  29 5.225273023952138  C 21.256999904459175 5.225273023952138  20.33954491398551 5.254272738979622  17.281363183801826 5.39400001005693  C 14.452545122666793 5.523181824860248  12.918182069605047 5.995090801607478  11.895272948525168 6.393181692470204  C 10.542818372899836 6.920454427599907  9.575273275375366 7.545273325660012  8.560273300517688 8.56027330051769  C 7.598118795589968 9.496318131685257  6.857657076282934 10.635835067792373  6.393181692470204 11.89527294852517  C 5.995090801607478 12.918182069605049  5.523181824860248 14.452545122666795  5.394000010056929 17.281363183801826  C 5.254272738979622 20.339544913985517  5.225273023952138 21.25699990445917  5.225273023952138 29  C 5.225273023952138 36.74300009554083  5.254272738979622 37.66045382889834  5.394000010056929 40.71863555908203  C 5.523181824860248 43.54745362021707  5.995090801607478 45.081820444627255  6.393181692470204 46.104729565707125  C 6.857181689955971 47.36227501522412  7.598000548102639 48.503818893974476  8.560273300517688 49.43972795659845  C 9.496182363141665 50.40200070901351  10.637727499008179 51.142820195718244  11.895272948525168 51.606820193204015  C 12.918182069605047 52.004911084066734  14.452545122666793 52.4768194322559  17.281363183801826 52.60600124705922  C 20.33954491398551 52.745728518136524  21.254363731904462 52.7747263474898  29 52.7747263474898  C 36.74563626809553 52.7747263474898  37.66045382889834 52.745728518136524  40.71863555908203 52.60600124705922  C 43.54745362021706 52.4768194322559  45.08182044462725 52.004911084066734  46.10472956570712 51.606820193204015  C 47.457184141332455 51.079547458074316  48.42472798174078 50.454727931456134  49.43972795659845 49.43972795659845  C 50.4020007090135 48.503818893974476  51.14282019571825 47.36227501522412  51.606820193204015 46.104729565707125  C 52.00491108406674 45.081820444627255  52.476819432255894 43.54745362021707  52.60600124705922 40.71863555908203  C 52.745728518136524 37.66045382889834  52.774726347489796 36.74300009554083  52.774726347489796 29  C 52.774726347489796 21.25699990445917  52.745728518136524 20.339544913985517  52.60600124705922 17.281363183801826  C 52.476819432255894 14.452545122666795  52.00491108406674 12.918182069605049  51.606820193204015 11.89527294852517  C 51.07954745807431 10.542818372899836  50.45472793145613 9.575273275375366  49.43972795659845 8.56027330051769  C 48.503626162355594 7.5981880941174245  47.36412729729306 6.8577372960068965  46.10472956570712 6.393181692470204  Z M 14.093932628631592 29  C 14.093932599176952 25.046664834022522  15.664387800476769 21.25524779883298  18.459817799654875 18.459817799654875  C 19.843974173069 17.07566142624075  21.487207255580206 15.977689428762956  23.29569469798695 15.228589318015361  C 25.10418214039369 14.479489207267761  27.04250720956109 14.093931386099909  29 14.093931371515449  C 30.957492790438913 14.093931356930995  32.895817859606304 14.479488028721375  34.70430530201305 15.228588060899215  C 36.51279274441979 15.977688093077056  38.156025826931 17.07566142624075  39.54018220034513 18.459817799654875  C 40.92433857375925 19.843974173069004  42.022310649806805 21.48720725558021  42.77141068198464 23.295694697986953  C 43.52051071416248 25.104182140393693  43.906068643069005 27.042507209561087  43.906068628484554 29  C 43.90606861390009 30.957492790438913  43.52051079273224 32.89581785960631  42.77141068198464 34.704305302013054  C 42.02231057123705 36.5127927444198  40.92433857375925 38.156025826931  39.54018220034513 39.54018220034513  C 36.74475220116702 42.33561219952323  32.95333516597748 43.9060686579392  29 43.906068628484554  C 25.046664834022522 43.906068599029915  21.25524779883298 42.33561219952323  18.459817799654875 39.54018220034513  C 15.664387800476769 36.74475220116702  14.093932658086235 32.95333516597748  14.093932628631592 29  Z M 48.01952864907005 15.169567715037953  C 47.829598513516515 15.601158904758366  47.55500529841944 15.990254972468723  47.21200249411843 16.313818714835428  C 46.54492481188341 16.943090946836904  45.658860168673776 17.287610540335827  44.74191006747159 17.274242877960205  C 43.824959966269404 17.260875215584583  42.94931760159406 16.890672699971635  42.30086708068848 16.242222179066054  C 41.65241655978289 15.593771658160472  41.28221781551838 14.718129293485122  41.26885015314276 13.801179192282937  C 41.25548249076713 12.884229091080751  41.599999570033766 11.998168219219558  42.22927180203524 11.331090536984531  C 42.55283554440195 10.988087732683532  42.94193286922845 10.713493260470306  43.37352405894887 10.523563124916771  C 43.805115248669274 10.333632989363236  44.27042606472969 10.23222854301672  44.74191006747159 10.225355061617766  C 45.21339407021349 10.218481580218809  45.6814676347104 10.306278318844058  46.118412017822266 10.483546603809703  C 46.55535640093413 10.660814888775349  46.95228980210695 10.923950806260109  47.28571475635875 11.257375760511918  C 47.61913971061056 11.590800714763729  47.88227688521147 11.987736630168829  48.05954517017711 12.424681013280695  C 48.23681345514276 12.861625396392563  48.324610193768 13.329695189541038  48.317736712369054 13.801179192282937  C 48.31086323097009 14.272663195024837  48.209458784623585 14.737976525317539  48.01952864907005 15.169567715037953  Z M 21.830990964716133 35.497902610085234  C 22.79125853831118 36.55801576917822  23.974628713997927 37.392030814831905  25.295909794894133 37.93990854783492  C 27.364555537700653 38.80102721398527  29.667997734113175 38.91724881936204  31.812812458385118 38.26871984655207  C 33.95762718265707 37.620190873742104  35.81076086922125 36.24714398925955  37.05569830807772 34.384095191955566  C 38.3006357469342 32.521046394651584  38.86014585061506 30.28356775370511  38.63866901397705 28.05382147702304  C 38.41719217733904 25.82407520034097  37.42846734415401 23.740382877263155  35.84136434034868 22.158635659651324  C 34.829624931920655 21.147528737783432  33.60628694837744 20.37332276051695  32.25942308252508 19.89175102927468  C 30.912559216672722 19.41017929803241  29.475676092234526 19.23322313143449  28.05221488259055 19.37362306768244  C 26.628753672946583 19.514023003930397  25.254129539836537 19.968285045840524  24.027301094748754 20.703707261519  C 22.80047264966098 21.439129477197476  21.751961415464226 22.437416485764768  20.957252502441406 23.626698407259855  C 20.162543589418586 24.815980328754947  19.641406877474353 26.16667109185999  19.431359897960316 27.58153299851851  C 19.221312918446284 28.99639490517703  19.327580756761808 30.44022642482411  19.742513743313875 31.809088880365547  C 20.157446729865942 33.17795133590698  20.870723391121086 34.43778945099224  21.830990964716133 35.497902610085234  Z " fill-rule="evenodd" />
    </mask>
  </defs>
  <g transform="matrix(1 0 0 1 -3 -3 )">
    <path d="M 17.041455138813365 0.17399995977228339  C 17.041455138813365 0.17399995977228339  17.044091311368074 0.17399995977228339  17.044091311368074 0.17399995977228339  C 20.136545798995275 0.03163631971586834  21.122545675797895 0  29 0  C 36.8774543242021 0  37.86345545812086 0.03427268869497558  40.95327377319336 0.17399995977228339  C 44.04309208826586 0.3137272308495912  46.15218020027334 0.8067273362116382  47.997634714299984 1.5211818760091609  C 49.93008920821276 2.2514546296813274  51.68327092582529 3.3929996869780807  53.133270957253195 4.869363329627297  C 54.609634599902414 6.316727031360974  55.7485478059812 8.067273047837343  56.47618415138938 10.002364028583873  C 57.193275099450894 11.847818542610515  57.6836364001713 13.956909797408365  57.82600004022772 17.04145513881337  C 57.968363680284135 20.139182285829026  58 21.125181848352604  58 29  C 58 36.877454324202105  57.965727311305024 37.86345420100473  57.82600004022772 40.95590868863193  C 57.686272769150406 44.04045403003693  57.193275099450894 46.14954528483478  56.47618415138938 47.99499979886142  C 55.74852588501844 49.93033858862791  54.60773745450106 51.68379812890833  53.133270957253195 53.1332709572532  C 51.68327092582529 54.609634599902414  49.93008920821276 55.748547805981204  47.997634714299984 56.47618415138938  C 46.15218020027334 57.193275099450894  44.04308894547549 57.6836364001713  40.95854360407049 57.82600004022772  C 37.86345262960955 57.968363680284135  36.8774543242021 58  29 58  C 21.122545675797895 58  20.136545798995275 57.96572731130503  17.044091311368074 57.82600004022772  C 13.959545969963074 57.68627276915041  11.850454715165226 57.193275099450894  10.005000201138584 56.47618415138938  C 8.069699753414502 55.74845006520098  6.316253727132623 54.607671613043  4.866727157072588 53.1332709572532  C 3.3913652788509023 51.685037174008116  2.2496479180726134 49.932424458590425  1.5211818760091609 47.997634714299984  C 0.8067273362116381 46.15218020027334  0.31636359982869844 44.043088945475496  0.17399995977228336 40.95854360407049  C 0.03163631971586834 37.86081645705484  0 36.874818151647396  0 29  C 0 21.122545675797895  0.034272688694975594 20.13654579899528  0.17399995977228336 17.046727483922787  C 0.31372723084959114 13.956909168850295  0.8067273362116381 11.847818542610515  1.5211818760091609 10.002364028583873  C 2.2507237737829033 8.067487700418992  3.39331302317706 6.314916784113105  4.869363329627297 4.866727157072588  C 6.316833571954207 3.3916849006306045  8.068517435680738 2.249987182292072  10.002364028583875 1.5211818760091609  C 11.847818542610517 0.8067273362116382  13.956909797408365 0.31636359982869844  17.041455138813365 0.17399995977228339  Z M 46.10472956570712 6.393181692470204  C 45.08182044462725 5.995090801607478  43.54745362021706 5.523181824860248  40.71863555908203 5.39400001005693  C 37.66045382889834 5.254272738979622  36.74300009554083 5.225273023952138  29 5.225273023952138  C 21.256999904459175 5.225273023952138  20.33954491398551 5.254272738979622  17.281363183801826 5.39400001005693  C 14.452545122666793 5.523181824860248  12.918182069605047 5.995090801607478  11.895272948525168 6.393181692470204  C 10.542818372899836 6.920454427599907  9.575273275375366 7.545273325660012  8.560273300517688 8.56027330051769  C 7.598118795589968 9.496318131685257  6.857657076282934 10.635835067792373  6.393181692470204 11.89527294852517  C 5.995090801607478 12.918182069605049  5.523181824860248 14.452545122666795  5.394000010056929 17.281363183801826  C 5.254272738979622 20.339544913985517  5.225273023952138 21.25699990445917  5.225273023952138 29  C 5.225273023952138 36.74300009554083  5.254272738979622 37.66045382889834  5.394000010056929 40.71863555908203  C 5.523181824860248 43.54745362021707  5.995090801607478 45.081820444627255  6.393181692470204 46.104729565707125  C 6.857181689955971 47.36227501522412  7.598000548102639 48.503818893974476  8.560273300517688 49.43972795659845  C 9.496182363141665 50.40200070901351  10.637727499008179 51.142820195718244  11.895272948525168 51.606820193204015  C 12.918182069605047 52.004911084066734  14.452545122666793 52.4768194322559  17.281363183801826 52.60600124705922  C 20.33954491398551 52.745728518136524  21.254363731904462 52.7747263474898  29 52.7747263474898  C 36.74563626809553 52.7747263474898  37.66045382889834 52.745728518136524  40.71863555908203 52.60600124705922  C 43.54745362021706 52.4768194322559  45.08182044462725 52.004911084066734  46.10472956570712 51.606820193204015  C 47.457184141332455 51.079547458074316  48.42472798174078 50.454727931456134  49.43972795659845 49.43972795659845  C 50.4020007090135 48.503818893974476  51.14282019571825 47.36227501522412  51.606820193204015 46.104729565707125  C 52.00491108406674 45.081820444627255  52.476819432255894 43.54745362021707  52.60600124705922 40.71863555908203  C 52.745728518136524 37.66045382889834  52.774726347489796 36.74300009554083  52.774726347489796 29  C 52.774726347489796 21.25699990445917  52.745728518136524 20.339544913985517  52.60600124705922 17.281363183801826  C 52.476819432255894 14.452545122666795  52.00491108406674 12.918182069605049  51.606820193204015 11.89527294852517  C 51.07954745807431 10.542818372899836  50.45472793145613 9.575273275375366  49.43972795659845 8.56027330051769  C 48.503626162355594 7.5981880941174245  47.36412729729306 6.8577372960068965  46.10472956570712 6.393181692470204  Z M 14.093932628631592 29  C 14.093932599176952 25.046664834022522  15.664387800476769 21.25524779883298  18.459817799654875 18.459817799654875  C 19.843974173069 17.07566142624075  21.487207255580206 15.977689428762956  23.29569469798695 15.228589318015361  C 25.10418214039369 14.479489207267761  27.04250720956109 14.093931386099909  29 14.093931371515449  C 30.957492790438913 14.093931356930995  32.895817859606304 14.479488028721375  34.70430530201305 15.228588060899215  C 36.51279274441979 15.977688093077056  38.156025826931 17.07566142624075  39.54018220034513 18.459817799654875  C 40.92433857375925 19.843974173069004  42.022310649806805 21.48720725558021  42.77141068198464 23.295694697986953  C 43.52051071416248 25.104182140393693  43.906068643069005 27.042507209561087  43.906068628484554 29  C 43.90606861390009 30.957492790438913  43.52051079273224 32.89581785960631  42.77141068198464 34.704305302013054  C 42.02231057123705 36.5127927444198  40.92433857375925 38.156025826931  39.54018220034513 39.54018220034513  C 36.74475220116702 42.33561219952323  32.95333516597748 43.9060686579392  29 43.906068628484554  C 25.046664834022522 43.906068599029915  21.25524779883298 42.33561219952323  18.459817799654875 39.54018220034513  C 15.664387800476769 36.74475220116702  14.093932658086235 32.95333516597748  14.093932628631592 29  Z M 48.01952864907005 15.169567715037953  C 47.829598513516515 15.601158904758366  47.55500529841944 15.990254972468723  47.21200249411843 16.313818714835428  C 46.54492481188341 16.943090946836904  45.658860168673776 17.287610540335827  44.74191006747159 17.274242877960205  C 43.824959966269404 17.260875215584583  42.94931760159406 16.890672699971635  42.30086708068848 16.242222179066054  C 41.65241655978289 15.593771658160472  41.28221781551838 14.718129293485122  41.26885015314276 13.801179192282937  C 41.25548249076713 12.884229091080751  41.599999570033766 11.998168219219558  42.22927180203524 11.331090536984531  C 42.55283554440195 10.988087732683532  42.94193286922845 10.713493260470306  43.37352405894887 10.523563124916771  C 43.805115248669274 10.333632989363236  44.27042606472969 10.23222854301672  44.74191006747159 10.225355061617766  C 45.21339407021349 10.218481580218809  45.6814676347104 10.306278318844058  46.118412017822266 10.483546603809703  C 46.55535640093413 10.660814888775349  46.95228980210695 10.923950806260109  47.28571475635875 11.257375760511918  C 47.61913971061056 11.590800714763729  47.88227688521147 11.987736630168829  48.05954517017711 12.424681013280695  C 48.23681345514276 12.861625396392563  48.324610193768 13.329695189541038  48.317736712369054 13.801179192282937  C 48.31086323097009 14.272663195024837  48.209458784623585 14.737976525317539  48.01952864907005 15.169567715037953  Z M 21.830990964716133 35.497902610085234  C 22.79125853831118 36.55801576917822  23.974628713997927 37.392030814831905  25.295909794894133 37.93990854783492  C 27.364555537700653 38.80102721398527  29.667997734113175 38.91724881936204  31.812812458385118 38.26871984655207  C 33.95762718265707 37.620190873742104  35.81076086922125 36.24714398925955  37.05569830807772 34.384095191955566  C 38.3006357469342 32.521046394651584  38.86014585061506 30.28356775370511  38.63866901397705 28.05382147702304  C 38.41719217733904 25.82407520034097  37.42846734415401 23.740382877263155  35.84136434034868 22.158635659651324  C 34.829624931920655 21.147528737783432  33.60628694837744 20.37332276051695  32.25942308252508 19.89175102927468  C 30.912559216672722 19.41017929803241  29.475676092234526 19.23322313143449  28.05221488259055 19.37362306768244  C 26.628753672946583 19.514023003930397  25.254129539836537 19.968285045840524  24.027301094748754 20.703707261519  C 22.80047264966098 21.439129477197476  21.751961415464226 22.437416485764768  20.957252502441406 23.626698407259855  C 20.162543589418586 24.815980328754947  19.641406877474353 26.16667109185999  19.431359897960316 27.58153299851851  C 19.221312918446284 28.99639490517703  19.327580756761808 30.44022642482411  19.742513743313875 31.809088880365547  C 20.157446729865942 33.17795133590698  20.870723391121086 34.43778945099224  21.830990964716133 35.497902610085234  Z " fill-rule="nonzero" fill="rgba(36, 20, 0, 1)" stroke="none" transform="matrix(1 0 0 1 3 3 )" class="fill" />
    <path d="M 17.041455138813365 0.17399995977228339  C 17.041455138813365 0.17399995977228339  17.044091311368074 0.17399995977228339  17.044091311368074 0.17399995977228339  C 20.136545798995275 0.03163631971586834  21.122545675797895 0  29 0  C 36.8774543242021 0  37.86345545812086 0.03427268869497558  40.95327377319336 0.17399995977228339  C 44.04309208826586 0.3137272308495912  46.15218020027334 0.8067273362116382  47.997634714299984 1.5211818760091609  C 49.93008920821276 2.2514546296813274  51.68327092582529 3.3929996869780807  53.133270957253195 4.869363329627297  C 54.609634599902414 6.316727031360974  55.7485478059812 8.067273047837343  56.47618415138938 10.002364028583873  C 57.193275099450894 11.847818542610515  57.6836364001713 13.956909797408365  57.82600004022772 17.04145513881337  C 57.968363680284135 20.139182285829026  58 21.125181848352604  58 29  C 58 36.877454324202105  57.965727311305024 37.86345420100473  57.82600004022772 40.95590868863193  C 57.686272769150406 44.04045403003693  57.193275099450894 46.14954528483478  56.47618415138938 47.99499979886142  C 55.74852588501844 49.93033858862791  54.60773745450106 51.68379812890833  53.133270957253195 53.1332709572532  C 51.68327092582529 54.609634599902414  49.93008920821276 55.748547805981204  47.997634714299984 56.47618415138938  C 46.15218020027334 57.193275099450894  44.04308894547549 57.6836364001713  40.95854360407049 57.82600004022772  C 37.86345262960955 57.968363680284135  36.8774543242021 58  29 58  C 21.122545675797895 58  20.136545798995275 57.96572731130503  17.044091311368074 57.82600004022772  C 13.959545969963074 57.68627276915041  11.850454715165226 57.193275099450894  10.005000201138584 56.47618415138938  C 8.069699753414502 55.74845006520098  6.316253727132623 54.607671613043  4.866727157072588 53.1332709572532  C 3.3913652788509023 51.685037174008116  2.2496479180726134 49.932424458590425  1.5211818760091609 47.997634714299984  C 0.8067273362116381 46.15218020027334  0.31636359982869844 44.043088945475496  0.17399995977228336 40.95854360407049  C 0.03163631971586834 37.86081645705484  0 36.874818151647396  0 29  C 0 21.122545675797895  0.034272688694975594 20.13654579899528  0.17399995977228336 17.046727483922787  C 0.31372723084959114 13.956909168850295  0.8067273362116381 11.847818542610515  1.5211818760091609 10.002364028583873  C 2.2507237737829033 8.067487700418992  3.39331302317706 6.314916784113105  4.869363329627297 4.866727157072588  C 6.316833571954207 3.3916849006306045  8.068517435680738 2.249987182292072  10.002364028583875 1.5211818760091609  C 11.847818542610517 0.8067273362116382  13.956909797408365 0.31636359982869844  17.041455138813365 0.17399995977228339  Z " stroke-width="0" stroke-dasharray="0" stroke="rgba(121, 121, 121, 1)" fill="none" transform="matrix(1 0 0 1 3 3 )" class="stroke" mask="url(#Clip173)" />
    <path d="M 46.10472956570712 6.393181692470204  C 45.08182044462725 5.995090801607478  43.54745362021706 5.523181824860248  40.71863555908203 5.39400001005693  C 37.66045382889834 5.254272738979622  36.74300009554083 5.225273023952138  29 5.225273023952138  C 21.256999904459175 5.225273023952138  20.33954491398551 5.254272738979622  17.281363183801826 5.39400001005693  C 14.452545122666793 5.523181824860248  12.918182069605047 5.995090801607478  11.895272948525168 6.393181692470204  C 10.542818372899836 6.920454427599907  9.575273275375366 7.545273325660012  8.560273300517688 8.56027330051769  C 7.598118795589968 9.496318131685257  6.857657076282934 10.635835067792373  6.393181692470204 11.89527294852517  C 5.995090801607478 12.918182069605049  5.523181824860248 14.452545122666795  5.394000010056929 17.281363183801826  C 5.254272738979622 20.339544913985517  5.225273023952138 21.25699990445917  5.225273023952138 29  C 5.225273023952138 36.74300009554083  5.254272738979622 37.66045382889834  5.394000010056929 40.71863555908203  C 5.523181824860248 43.54745362021707  5.995090801607478 45.081820444627255  6.393181692470204 46.104729565707125  C 6.857181689955971 47.36227501522412  7.598000548102639 48.503818893974476  8.560273300517688 49.43972795659845  C 9.496182363141665 50.40200070901351  10.637727499008179 51.142820195718244  11.895272948525168 51.606820193204015  C 12.918182069605047 52.004911084066734  14.452545122666793 52.4768194322559  17.281363183801826 52.60600124705922  C 20.33954491398551 52.745728518136524  21.254363731904462 52.7747263474898  29 52.7747263474898  C 36.74563626809553 52.7747263474898  37.66045382889834 52.745728518136524  40.71863555908203 52.60600124705922  C 43.54745362021706 52.4768194322559  45.08182044462725 52.004911084066734  46.10472956570712 51.606820193204015  C 47.457184141332455 51.079547458074316  48.42472798174078 50.454727931456134  49.43972795659845 49.43972795659845  C 50.4020007090135 48.503818893974476  51.14282019571825 47.36227501522412  51.606820193204015 46.104729565707125  C 52.00491108406674 45.081820444627255  52.476819432255894 43.54745362021707  52.60600124705922 40.71863555908203  C 52.745728518136524 37.66045382889834  52.774726347489796 36.74300009554083  52.774726347489796 29  C 52.774726347489796 21.25699990445917  52.745728518136524 20.339544913985517  52.60600124705922 17.281363183801826  C 52.476819432255894 14.452545122666795  52.00491108406674 12.918182069605049  51.606820193204015 11.89527294852517  C 51.07954745807431 10.542818372899836  50.45472793145613 9.575273275375366  49.43972795659845 8.56027330051769  C 48.503626162355594 7.5981880941174245  47.36412729729306 6.8577372960068965  46.10472956570712 6.393181692470204  Z " stroke-width="0" stroke-dasharray="0" stroke="rgba(121, 121, 121, 1)" fill="none" transform="matrix(1 0 0 1 3 3 )" class="stroke" mask="url(#Clip173)" />
    <path d="M 14.093932628631592 29  C 14.093932599176952 25.046664834022522  15.664387800476769 21.25524779883298  18.459817799654875 18.459817799654875  C 19.843974173069 17.07566142624075  21.487207255580206 15.977689428762956  23.29569469798695 15.228589318015361  C 25.10418214039369 14.479489207267761  27.04250720956109 14.093931386099909  29 14.093931371515449  C 30.957492790438913 14.093931356930995  32.895817859606304 14.479488028721375  34.70430530201305 15.228588060899215  C 36.51279274441979 15.977688093077056  38.156025826931 17.07566142624075  39.54018220034513 18.459817799654875  C 40.92433857375925 19.843974173069004  42.022310649806805 21.48720725558021  42.77141068198464 23.295694697986953  C 43.52051071416248 25.104182140393693  43.906068643069005 27.042507209561087  43.906068628484554 29  C 43.90606861390009 30.957492790438913  43.52051079273224 32.89581785960631  42.77141068198464 34.704305302013054  C 42.02231057123705 36.5127927444198  40.92433857375925 38.156025826931  39.54018220034513 39.54018220034513  C 36.74475220116702 42.33561219952323  32.95333516597748 43.9060686579392  29 43.906068628484554  C 25.046664834022522 43.906068599029915  21.25524779883298 42.33561219952323  18.459817799654875 39.54018220034513  C 15.664387800476769 36.74475220116702  14.093932658086235 32.95333516597748  14.093932628631592 29  Z " stroke-width="0" stroke-dasharray="0" stroke="rgba(121, 121, 121, 1)" fill="none" transform="matrix(1 0 0 1 3 3 )" class="stroke" mask="url(#Clip173)" />
    <path d="M 48.01952864907005 15.169567715037953  C 47.829598513516515 15.601158904758366  47.55500529841944 15.990254972468723  47.21200249411843 16.313818714835428  C 46.54492481188341 16.943090946836904  45.658860168673776 17.287610540335827  44.74191006747159 17.274242877960205  C 43.824959966269404 17.260875215584583  42.94931760159406 16.890672699971635  42.30086708068848 16.242222179066054  C 41.65241655978289 15.593771658160472  41.28221781551838 14.718129293485122  41.26885015314276 13.801179192282937  C 41.25548249076713 12.884229091080751  41.599999570033766 11.998168219219558  42.22927180203524 11.331090536984531  C 42.55283554440195 10.988087732683532  42.94193286922845 10.713493260470306  43.37352405894887 10.523563124916771  C 43.805115248669274 10.333632989363236  44.27042606472969 10.23222854301672  44.74191006747159 10.225355061617766  C 45.21339407021349 10.218481580218809  45.6814676347104 10.306278318844058  46.118412017822266 10.483546603809703  C 46.55535640093413 10.660814888775349  46.95228980210695 10.923950806260109  47.28571475635875 11.257375760511918  C 47.61913971061056 11.590800714763729  47.88227688521147 11.987736630168829  48.05954517017711 12.424681013280695  C 48.23681345514276 12.861625396392563  48.324610193768 13.329695189541038  48.317736712369054 13.801179192282937  C 48.31086323097009 14.272663195024837  48.209458784623585 14.737976525317539  48.01952864907005 15.169567715037953  Z " stroke-width="0" stroke-dasharray="0" stroke="rgba(121, 121, 121, 1)" fill="none" transform="matrix(1 0 0 1 3 3 )" class="stroke" mask="url(#Clip173)" />
    <path d="M 21.830990964716133 35.497902610085234  C 22.79125853831118 36.55801576917822  23.974628713997927 37.392030814831905  25.295909794894133 37.93990854783492  C 27.364555537700653 38.80102721398527  29.667997734113175 38.91724881936204  31.812812458385118 38.26871984655207  C 33.95762718265707 37.620190873742104  35.81076086922125 36.24714398925955  37.05569830807772 34.384095191955566  C 38.3006357469342 32.521046394651584  38.86014585061506 30.28356775370511  38.63866901397705 28.05382147702304  C 38.41719217733904 25.82407520034097  37.42846734415401 23.740382877263155  35.84136434034868 22.158635659651324  C 34.829624931920655 21.147528737783432  33.60628694837744 20.37332276051695  32.25942308252508 19.89175102927468  C 30.912559216672722 19.41017929803241  29.475676092234526 19.23322313143449  28.05221488259055 19.37362306768244  C 26.628753672946583 19.514023003930397  25.254129539836537 19.968285045840524  24.027301094748754 20.703707261519  C 22.80047264966098 21.439129477197476  21.751961415464226 22.437416485764768  20.957252502441406 23.626698407259855  C 20.162543589418586 24.815980328754947  19.641406877474353 26.16667109185999  19.431359897960316 27.58153299851851  C 19.221312918446284 28.99639490517703  19.327580756761808 30.44022642482411  19.742513743313875 31.809088880365547  C 20.157446729865942 33.17795133590698  20.870723391121086 34.43778945099224  21.830990964716133 35.497902610085234  Z " stroke-width="0" stroke-dasharray="0" stroke="rgba(121, 121, 121, 1)" fill="none" transform="matrix(1 0 0 1 3 3 )" class="stroke" mask="url(#Clip173)" />
  </g>
</svg>