<?xml version="1.0" encoding="utf-8"?>
<svg version="1.1" xmlns:xlink="http://www.w3.org/1999/xlink" width="18px" height="18px" xmlns="http://www.w3.org/2000/svg">
  <defs>
    <pattern id="BGPattern" patternUnits="userSpaceOnUse" alignment="0 0" imageRepeat="None" />
    <mask fill="white" id="Clip180">
      <path d="M 11.399741753238708 1.2731164727512334  C 11.399741753238708 1.2731164727512334  10.572593730385575 0.5749550341648633  10.572593730385575 0.5749550341648633  C 9.664341464622893 -0.19165230778332643  8.335675392721217 -0.19165107254690433  7.4274231269585345 0.5749550341648633  C 7.4274231269585345 0.5749550341648633  6.600261734487658 1.2731164727512334  6.600261734487658 1.2731164727512334  C 6.2142255752261875 1.5989438300699623  5.73651699885538 1.796831983698948  5.23314740307124 1.8394011644872466  C 5.23314740307124 1.8394011644872466  4.154581974680914 1.930610440599305  4.154581974680914 1.930610440599305  C 2.9702761668931315 2.03076748779102  2.03076748779102 2.9702761668931315  1.930610440599305 4.154581974680914  C 1.930610440599305 4.154581974680914  1.8394011644872466 5.23314740307124  1.8394011644872466 5.23314740307124  C 1.796831983698948 5.73651699885538  1.5989438300699623 6.2142255752261875  1.2731164727512334 6.600273941529946  C 1.2731164727512334 6.600273941529946  0.5749550341648633 7.4274231269585345  0.5749550341648633 7.4274231269585345  C -0.19165230778332643 8.335675392721217  -0.19165107254690433 9.664341464622893  0.5749550341648633 10.572593730385575  C 0.5749550341648633 10.572593730385575  1.2731164727512334 11.399741753238708  1.2731164727512334 11.399741753238708  C 1.5989438300699623 11.785777912500178  1.796831983698948 12.263523654955096  1.8394011644872466 12.766868872985143  C 1.8394011644872466 12.766868872985143  1.930610440599305 13.845483129544618  1.930610440599305 13.845483129544618  C 2.03076748779102 15.029788937332402  2.9702761668931315 15.969309587328663  4.154581974680914 16.069393483092856  C 4.154581974680914 16.069393483092856  5.23314740307124 16.160578926408068  5.23314740307124 16.160578926408068  C 5.73651699885538 16.20324563183667  6.2142255752261875 16.40109675107955  6.600273941529946 16.72694848615237  C 6.600273941529946 16.72694848615237  7.4274231269585345 17.425097136408723  7.4274231269585345 17.425097136408723  C 8.335675392721217 18.191634941812453  9.664341464622893 18.191634941812453  10.572593730385575 17.425097136408723  C 10.572593730385575 17.425097136408723  11.399741753238708 16.72694848615237  11.399741753238708 16.72694848615237  C 11.785777912500178 16.40109675107955  12.263523654955096 16.20324563183667  12.766868872985143 16.160578926408068  C 12.766868872985143 16.160578926408068  13.845483129544618 16.069393483092856  13.845483129544618 16.069393483092856  C 15.029788937332402 15.969309587328663  15.969309587328663 15.029788937332402  16.069393483092856 13.845483129544618  C 16.069393483092856 13.845483129544618  16.160578926408068 12.766868872985143  16.160578926408068 12.766868872985143  C 16.20324563183667 12.263523654955096  16.40109675107955 11.785777912500178  16.72694848615237 11.399741753238708  C 16.72694848615237 11.399741753238708  17.425097136408723 10.572593730385575  17.425097136408723 10.572593730385575  C 18.191634941812453 9.664341464622893  18.191634941812453 8.335675392721217  17.425097136408723 7.4274231269585345  C 17.425097136408723 7.4274231269585345  16.72694848615237 6.600261734487658  16.72694848615237 6.600261734487658  C 16.40109675107955 6.2142255752261875  16.20324563183667 5.73651699885538  16.160578926408068 5.23314740307124  C 16.160578926408068 5.23314740307124  16.069393483092856 4.154581974680914  16.069393483092856 4.154581974680914  C 15.969309587328663 2.9702761668931315  15.029788937332402 2.03076748779102  13.845483129544618 1.930610440599305  C 13.845483129544618 1.930610440599305  12.766868872985143 1.8394011644872466  12.766868872985143 1.8394011644872466  C 12.263523654955096 1.796831983698948  11.785777912500178 1.5989438300699623  11.399741753238708 1.2731164727512334  Z M 13.43344429900769 5.786168852717577  C 13.86193993008142 6.214627898994927  13.86193993008142 6.90930277378878  13.43344429900769 7.337761820066129  C 13.43344429900769 7.337761820066129  8.557286034769016 12.213908458550243  8.557286034769016 12.213908458550243  C 8.128826988491664 12.642404089623975  7.434152113697812 12.642404089623975  7.005693067420463 12.213908458550243  C 7.005693067420463 12.213908458550243  4.567595624737693 9.775859844036626  4.567595624737693 9.775859844036626  C 4.139124371418056 9.347400797759276  4.139124371418056 8.652725341677698  4.567595624737693 8.224266295400348  C 4.9960546710150435 7.79579504208071  5.690729545808895 7.79579504208071  6.119188592086244 8.224266295400348  C 6.119188592086244 8.224266295400348  7.781483738217458 9.88656144153156  7.781483738217458 9.88656144153156  C 7.781483738217458 9.88656144153156  11.881839705904579 5.786168852717577  11.881839705904579 5.786168852717577  C 12.310335336978307 5.35769759939794  13.005070593034906 5.35769759939794  13.43344429900769 5.786168852717577  Z " fill-rule="evenodd" />
    </mask>
  </defs>
  <g transform="matrix(1 0 0 1 -171 -31 )">
    <path d="M 11.399741753238708 1.2731164727512334  C 11.399741753238708 1.2731164727512334  10.572593730385575 0.5749550341648633  10.572593730385575 0.5749550341648633  C 9.664341464622893 -0.19165230778332643  8.335675392721217 -0.19165107254690433  7.4274231269585345 0.5749550341648633  C 7.4274231269585345 0.5749550341648633  6.600261734487658 1.2731164727512334  6.600261734487658 1.2731164727512334  C 6.2142255752261875 1.5989438300699623  5.73651699885538 1.796831983698948  5.23314740307124 1.8394011644872466  C 5.23314740307124 1.8394011644872466  4.154581974680914 1.930610440599305  4.154581974680914 1.930610440599305  C 2.9702761668931315 2.03076748779102  2.03076748779102 2.9702761668931315  1.930610440599305 4.154581974680914  C 1.930610440599305 4.154581974680914  1.8394011644872466 5.23314740307124  1.8394011644872466 5.23314740307124  C 1.796831983698948 5.73651699885538  1.5989438300699623 6.2142255752261875  1.2731164727512334 6.600273941529946  C 1.2731164727512334 6.600273941529946  0.5749550341648633 7.4274231269585345  0.5749550341648633 7.4274231269585345  C -0.19165230778332643 8.335675392721217  -0.19165107254690433 9.664341464622893  0.5749550341648633 10.572593730385575  C 0.5749550341648633 10.572593730385575  1.2731164727512334 11.399741753238708  1.2731164727512334 11.399741753238708  C 1.5989438300699623 11.785777912500178  1.796831983698948 12.263523654955096  1.8394011644872466 12.766868872985143  C 1.8394011644872466 12.766868872985143  1.930610440599305 13.845483129544618  1.930610440599305 13.845483129544618  C 2.03076748779102 15.029788937332402  2.9702761668931315 15.969309587328663  4.154581974680914 16.069393483092856  C 4.154581974680914 16.069393483092856  5.23314740307124 16.160578926408068  5.23314740307124 16.160578926408068  C 5.73651699885538 16.20324563183667  6.2142255752261875 16.40109675107955  6.600273941529946 16.72694848615237  C 6.600273941529946 16.72694848615237  7.4274231269585345 17.425097136408723  7.4274231269585345 17.425097136408723  C 8.335675392721217 18.191634941812453  9.664341464622893 18.191634941812453  10.572593730385575 17.425097136408723  C 10.572593730385575 17.425097136408723  11.399741753238708 16.72694848615237  11.399741753238708 16.72694848615237  C 11.785777912500178 16.40109675107955  12.263523654955096 16.20324563183667  12.766868872985143 16.160578926408068  C 12.766868872985143 16.160578926408068  13.845483129544618 16.069393483092856  13.845483129544618 16.069393483092856  C 15.029788937332402 15.969309587328663  15.969309587328663 15.029788937332402  16.069393483092856 13.845483129544618  C 16.069393483092856 13.845483129544618  16.160578926408068 12.766868872985143  16.160578926408068 12.766868872985143  C 16.20324563183667 12.263523654955096  16.40109675107955 11.785777912500178  16.72694848615237 11.399741753238708  C 16.72694848615237 11.399741753238708  17.425097136408723 10.572593730385575  17.425097136408723 10.572593730385575  C 18.191634941812453 9.664341464622893  18.191634941812453 8.335675392721217  17.425097136408723 7.4274231269585345  C 17.425097136408723 7.4274231269585345  16.72694848615237 6.600261734487658  16.72694848615237 6.600261734487658  C 16.40109675107955 6.2142255752261875  16.20324563183667 5.73651699885538  16.160578926408068 5.23314740307124  C 16.160578926408068 5.23314740307124  16.069393483092856 4.154581974680914  16.069393483092856 4.154581974680914  C 15.969309587328663 2.9702761668931315  15.029788937332402 2.03076748779102  13.845483129544618 1.930610440599305  C 13.845483129544618 1.930610440599305  12.766868872985143 1.8394011644872466  12.766868872985143 1.8394011644872466  C 12.263523654955096 1.796831983698948  11.785777912500178 1.5989438300699623  11.399741753238708 1.2731164727512334  Z M 13.43344429900769 5.786168852717577  C 13.86193993008142 6.214627898994927  13.86193993008142 6.90930277378878  13.43344429900769 7.337761820066129  C 13.43344429900769 7.337761820066129  8.557286034769016 12.213908458550243  8.557286034769016 12.213908458550243  C 8.128826988491664 12.642404089623975  7.434152113697812 12.642404089623975  7.005693067420463 12.213908458550243  C 7.005693067420463 12.213908458550243  4.567595624737693 9.775859844036626  4.567595624737693 9.775859844036626  C 4.139124371418056 9.347400797759276  4.139124371418056 8.652725341677698  4.567595624737693 8.224266295400348  C 4.9960546710150435 7.79579504208071  5.690729545808895 7.79579504208071  6.119188592086244 8.224266295400348  C 6.119188592086244 8.224266295400348  7.781483738217458 9.88656144153156  7.781483738217458 9.88656144153156  C 7.781483738217458 9.88656144153156  11.881839705904579 5.786168852717577  11.881839705904579 5.786168852717577  C 12.310335336978307 5.35769759939794  13.005070593034906 5.35769759939794  13.43344429900769 5.786168852717577  Z " fill-rule="nonzero" fill="rgba(37, 36, 48, 1)" stroke="none" transform="matrix(1 0 0 1 171 31 )" class="fill" />
    <path d="M 11.399741753238708 1.2731164727512334  C 11.399741753238708 1.2731164727512334  10.572593730385575 0.5749550341648633  10.572593730385575 0.5749550341648633  C 9.664341464622893 -0.19165230778332643  8.335675392721217 -0.19165107254690433  7.4274231269585345 0.5749550341648633  C 7.4274231269585345 0.5749550341648633  6.600261734487658 1.2731164727512334  6.600261734487658 1.2731164727512334  C 6.2142255752261875 1.5989438300699623  5.73651699885538 1.796831983698948  5.23314740307124 1.8394011644872466  C 5.23314740307124 1.8394011644872466  4.154581974680914 1.930610440599305  4.154581974680914 1.930610440599305  C 2.9702761668931315 2.03076748779102  2.03076748779102 2.9702761668931315  1.930610440599305 4.154581974680914  C 1.930610440599305 4.154581974680914  1.8394011644872466 5.23314740307124  1.8394011644872466 5.23314740307124  C 1.796831983698948 5.73651699885538  1.5989438300699623 6.2142255752261875  1.2731164727512334 6.600273941529946  C 1.2731164727512334 6.600273941529946  0.5749550341648633 7.4274231269585345  0.5749550341648633 7.4274231269585345  C -0.19165230778332643 8.335675392721217  -0.19165107254690433 9.664341464622893  0.5749550341648633 10.572593730385575  C 0.5749550341648633 10.572593730385575  1.2731164727512334 11.399741753238708  1.2731164727512334 11.399741753238708  C 1.5989438300699623 11.785777912500178  1.796831983698948 12.263523654955096  1.8394011644872466 12.766868872985143  C 1.8394011644872466 12.766868872985143  1.930610440599305 13.845483129544618  1.930610440599305 13.845483129544618  C 2.03076748779102 15.029788937332402  2.9702761668931315 15.969309587328663  4.154581974680914 16.069393483092856  C 4.154581974680914 16.069393483092856  5.23314740307124 16.160578926408068  5.23314740307124 16.160578926408068  C 5.73651699885538 16.20324563183667  6.2142255752261875 16.40109675107955  6.600273941529946 16.72694848615237  C 6.600273941529946 16.72694848615237  7.4274231269585345 17.425097136408723  7.4274231269585345 17.425097136408723  C 8.335675392721217 18.191634941812453  9.664341464622893 18.191634941812453  10.572593730385575 17.425097136408723  C 10.572593730385575 17.425097136408723  11.399741753238708 16.72694848615237  11.399741753238708 16.72694848615237  C 11.785777912500178 16.40109675107955  12.263523654955096 16.20324563183667  12.766868872985143 16.160578926408068  C 12.766868872985143 16.160578926408068  13.845483129544618 16.069393483092856  13.845483129544618 16.069393483092856  C 15.029788937332402 15.969309587328663  15.969309587328663 15.029788937332402  16.069393483092856 13.845483129544618  C 16.069393483092856 13.845483129544618  16.160578926408068 12.766868872985143  16.160578926408068 12.766868872985143  C 16.20324563183667 12.263523654955096  16.40109675107955 11.785777912500178  16.72694848615237 11.399741753238708  C 16.72694848615237 11.399741753238708  17.425097136408723 10.572593730385575  17.425097136408723 10.572593730385575  C 18.191634941812453 9.664341464622893  18.191634941812453 8.335675392721217  17.425097136408723 7.4274231269585345  C 17.425097136408723 7.4274231269585345  16.72694848615237 6.600261734487658  16.72694848615237 6.600261734487658  C 16.40109675107955 6.2142255752261875  16.20324563183667 5.73651699885538  16.160578926408068 5.23314740307124  C 16.160578926408068 5.23314740307124  16.069393483092856 4.154581974680914  16.069393483092856 4.154581974680914  C 15.969309587328663 2.9702761668931315  15.029788937332402 2.03076748779102  13.845483129544618 1.930610440599305  C 13.845483129544618 1.930610440599305  12.766868872985143 1.8394011644872466  12.766868872985143 1.8394011644872466  C 12.263523654955096 1.796831983698948  11.785777912500178 1.5989438300699623  11.399741753238708 1.2731164727512334  Z " stroke-width="0" stroke-dasharray="0" stroke="rgba(121, 121, 121, 1)" fill="none" transform="matrix(1 0 0 1 171 31 )" class="stroke" mask="url(#Clip180)" />
    <path d="M 13.43344429900769 5.786168852717577  C 13.86193993008142 6.214627898994927  13.86193993008142 6.90930277378878  13.43344429900769 7.337761820066129  C 13.43344429900769 7.337761820066129  8.557286034769016 12.213908458550243  8.557286034769016 12.213908458550243  C 8.128826988491664 12.642404089623975  7.434152113697812 12.642404089623975  7.005693067420463 12.213908458550243  C 7.005693067420463 12.213908458550243  4.567595624737693 9.775859844036626  4.567595624737693 9.775859844036626  C 4.139124371418056 9.347400797759276  4.139124371418056 8.652725341677698  4.567595624737693 8.224266295400348  C 4.9960546710150435 7.79579504208071  5.690729545808895 7.79579504208071  6.119188592086244 8.224266295400348  C 6.119188592086244 8.224266295400348  7.781483738217458 9.88656144153156  7.781483738217458 9.88656144153156  C 7.781483738217458 9.88656144153156  11.881839705904579 5.786168852717577  11.881839705904579 5.786168852717577  C 12.310335336978307 5.35769759939794  13.005070593034906 5.35769759939794  13.43344429900769 5.786168852717577  Z " stroke-width="0" stroke-dasharray="0" stroke="rgba(121, 121, 121, 1)" fill="none" transform="matrix(1 0 0 1 171 31 )" class="stroke" mask="url(#Clip180)" />
  </g>
</svg>