<?xml version="1.0" encoding="utf-8"?>
<svg version="1.1" xmlns:xlink="http://www.w3.org/1999/xlink" width="68px" height="68px" xmlns="http://www.w3.org/2000/svg">
  <defs>
    <pattern id="BGPattern" patternUnits="userSpaceOnUse" alignment="0 0" imageRepeat="None" />
    <mask fill="white" id="Clip179">
      <path d="M 67.56744681624237 23.867061055569792  C 67.56764975283532 23.868620909120267  70.04286531493037 23.050215222514048  63.14890650673325 20.542490710132203  C 62.87392743246456 17.894379389345126  62.83516819319806 13.333367980620931  64.75515129778469 11.801851836511393  C 64.7894475803173 11.773774472118589  64.81501620221508 11.733217599445833  64.84505081693344 11.698380869586929  C 66.41476531600506 11.055201267148584  67.5010882666723 10.152566980445568  66.64834871492033 8.937961044217424  C 66.64834871492033 8.937961044217424  43.49287766932003 0  43.49287766932003 0  C 43.49287766932003 0  5.998922189931914 6.6779930385349395  5.998922189931914 6.6779930385349395  C 5.998922189931914 6.6779930385349395  1.7053930528234176 7.464158768912984  2.0889431923943227 16.00955611763856  C 2.2971561315250235 20.660519254869122  3.4358332161495415 22.94466794869895  4.431643043658947 24.068802366893454  C 4.431643043658947 24.068802366893454  1.3549214528580078 25.256630898726232  1.3549214528580078 25.256630898726232  C 0.5009642730905728 26.47123683495438  1.5870809150135479 27.374129528828778  3.1569983359597984 28.016269242297508  C 3.1868300136835797 28.052145872747843  3.2119941163400414 28.092442343171058  3.2468992098564073 28.120519707563865  C 5.165664589659854 29.653335759372677  5.128730365092933 34.21382948599195  4.852736608875324 36.862460720272324  C -2.040410124752469 39.369925399873544  0.4339952644618081 40.18702709879724  0.4339952644618081 40.18702709879724  C 0.4339952644618081 40.18702709879724  1.9460757417438022 40.655765435053056  1.9460757417438022 40.655765435053056  C 0.8824850729555626 41.887009842727075  -0.17379982925182147 44.22185035008587  0.024063344323118106 48.6500148117519  C 0.40781642996057776 57.19385217206553  3.9344482596977404 57.78347820537336  3.9344482596977404 57.78347820537336  C 3.9344482596977404 57.78347820537336  28.47029395432728 68  28.47029395432728 68  C 28.47029395432728 68  65.50419215907463 56.508556105621146  65.50419215907463 56.508556105621146  C 65.50419215907463 56.508556105621146  67.97941170336387 55.69015127588162  61.08443799549048 53.18242676349978  C 60.80722661125739 50.53795508509785  60.76866659250086 45.977982883530146  62.69189664061695 44.44126723258953  C 62.727207605098485 44.413969796545764  62.752977727595244 44.372634692308885  62.78159178637552 44.33831791468267  C 64.35150920732177 43.695138312244325  65.43681648417113 42.79328154042686  64.58387401054453 41.578675604198715  C 64.58387401054453 41.578675604198715  62.97417964439212 40.95603692355654  62.97417964439212 40.95603692355654  C 64.0477141624111 40.12671477821983  65.66025192657668 37.95929868834032  65.91290797377718 32.32926728672623  C 66.08723050436443 28.45667092954214  65.29861401097989 26.188640793664884  64.3858052297912 24.853406125403207  C 64.3858052297912 24.853406125403207  67.56744681624237 23.867061055569792  67.56744681624237 23.867061055569792  Z M 31.910474072494083 30.834407647180917  L 32.17226399905354 20.433039622340576  L 38.39997948980059 18.793375769187286  L 59.446125161579296 13.252775934654212  C 59.446125161579296 13.252775934654212  62.581702224509634 12.42657314631129  62.581702224509634 12.42657314631129  C 61.57980435369055 14.775712638362123  61.621813330653964 17.99057131943133  61.78761251351674 20.05685729276644  C 61.82393816297119 20.524293396960083  61.86574136341272 20.951174234228343  61.90632868068142 21.275623776601208  C 61.90632868068142 21.275623776601208  58.47426775992465 22.368821606419957  58.47426775992465 22.368821606419957  L 31.910474072494083 30.834407647180917  Z M 6.215658621938645 36.37734696846782  C 6.380443122852496 34.31262085957863  6.4232625051423495 31.09698280413357  5.420552850057054 28.747843312082733  C 5.420552850057054 28.747843312082733  8.555720392065394 29.574044116969315  8.555720392065394 29.574044116969315  L 28.767595305714448 34.89678408222616  L 30.533347334671355 35.360059979719736  L 35.828572073906294 36.754310779840196  L 36.08975197686173 47.15593268709214  L 8.78788004775634 38.45429154031369  C 8.78788004775634 38.45429154031369  6.096332044099115 37.59741063274941  6.096332044099115 37.59741063274941  C 6.135904676394909 37.272441145891726  6.1777094795515275 36.84608294936924  6.215658621938645 36.37734696846782  Z M 6.639999324219895 22.24143213948318  C 6.546851434218043 22.232852945076626  4.311301711294717 21.969238458938424  4.202527699925946 15.598276528116015  C 4.164578557538828 13.325309941304859  4.480753862875655 11.68148262734344  5.119801149427277 10.84592108620603  C 5.526486051948728 10.312451164679729  6.006430928283246 10.201442567796578  6.335594062169765 10.201442567796578  C 6.509510712719866 10.201442567796578  6.634722737829442 10.232378536342226  6.643246074213953 10.232378536342226  C 6.643246074213953 10.232378536342226  22.798418346683025 16.979524780195117  22.798418346683025 16.979524780195117  L 30.858452756823077 20.34595002133382  L 30.594024555590337 30.820106926964584  L 7.982424389359359 22.698987748890225  C 7.982424389359359 22.698987748890225  6.789157062680791 22.270807127888716  6.789157062680791 22.270807127888716  C 6.745322759546749 22.254948616751857  6.685862991251779 22.24403189531993  6.639999324219895 22.24143213948318  Z M 28.791541054597655 52.98770688762214  L 28.528738550786834 63.462121642577195  C 28.528738550786834 63.462121642577195  4.724480694410506 54.912563994177034  4.724480694410506 54.912563994177034  C 4.680443457305872 54.896185531775984  4.62159188612453 54.88526725544213  4.575728219092646 54.88240752397327  C 4.480956833134136 54.874348280830915  2.2443925734134442 54.610995325226746  2.1362273760524113 48.24159338281628  C 2.0976694257055364 45.96576714782594  2.4154681483752634 44.323498768565294  3.053297806911409 43.48715729520492  C 3.4609974155737073 42.95368737367862  3.941145262166706 42.84267679333912  4.269699582045488 42.84267679333912  C 4.444022112632735 42.84267679333912  4.568828309869006 42.8725754142186  4.5779604564812635 42.8725754142186  C 4.5779604564812635 42.8725754142186  4.578975139375181 42.8725754142186  4.5779604564812635 42.8725754142186  C 4.5779604564812635 42.8725754142186  28.791541054597655 52.98770688762214  28.791541054597655 52.98770688762214  Z M 60.51641621970613 45.06754753907322  C 59.5135036427462 47.41642695041138  59.55510433257584 50.63258690280609  59.721106461505165 52.69731301169527  C 59.75864972990313 53.16630898033484  59.80045535860921 53.59240718911917  59.841042675877915 53.917376675976854  C 59.841042675877915 53.917376675976854  29.84458114065306 63.476942028354784  29.84458114065306 63.476942028354784  L 30.106773620859855 53.075316154190155  L 36.519772169207684 51.38625630432847  L 37.466878714684455 51.67976817362289  L 41.01664632192106 50.201807582100216  L 57.37962530270076 45.894271976433735  C 57.37962530270076 45.894271976433735  60.51641621970613 45.06754753907322  60.51641621970613 45.06754753907322  Z M 63.80297567291805 31.919544710431122  C 63.69136054967311 38.288426491416246  61.45479334458544 38.55308109024398  61.37341577607744 38.56114033338634  C 61.31882583642246 38.562700186936816  61.26423891471023 38.57205775357986  61.2128959609206 38.592855800273874  C 61.2128959609206 38.592855800273874  58.95055684918163 39.404240186295546  58.95055684918163 39.404240186295546  L 37.40924541865261 47.14215559934975  L 37.145832891237745 36.667998693718985  L 44.213303159417706 33.7149336878042  C 44.213303159417706 33.7149336878042  61.326335578738714 26.56534712761103  61.326335578738714 26.56534712761103  C 61.32856788114313 26.564047249692653  62.22656034905317 26.308491886846845  62.88569835270858 27.167191251977474  C 63.5237309815032 28.002752793114887  63.84031600432143 29.646578123619964  63.80297567291805 31.919544710431122  Z " fill-rule="evenodd" />
    </mask>
  </defs>
  <g transform="matrix(1 0 0 1 0 -10 )">
    <path d="M 67.56744681624237 23.867061055569792  C 67.56764975283532 23.868620909120267  70.04286531493037 23.050215222514048  63.14890650673325 20.542490710132203  C 62.87392743246456 17.894379389345126  62.83516819319806 13.333367980620931  64.75515129778469 11.801851836511393  C 64.7894475803173 11.773774472118589  64.81501620221508 11.733217599445833  64.84505081693344 11.698380869586929  C 66.41476531600506 11.055201267148584  67.5010882666723 10.152566980445568  66.64834871492033 8.937961044217424  C 66.64834871492033 8.937961044217424  43.49287766932003 0  43.49287766932003 0  C 43.49287766932003 0  5.998922189931914 6.6779930385349395  5.998922189931914 6.6779930385349395  C 5.998922189931914 6.6779930385349395  1.7053930528234176 7.464158768912984  2.0889431923943227 16.00955611763856  C 2.2971561315250235 20.660519254869122  3.4358332161495415 22.94466794869895  4.431643043658947 24.068802366893454  C 4.431643043658947 24.068802366893454  1.3549214528580078 25.256630898726232  1.3549214528580078 25.256630898726232  C 0.5009642730905728 26.47123683495438  1.5870809150135479 27.374129528828778  3.1569983359597984 28.016269242297508  C 3.1868300136835797 28.052145872747843  3.2119941163400414 28.092442343171058  3.2468992098564073 28.120519707563865  C 5.165664589659854 29.653335759372677  5.128730365092933 34.21382948599195  4.852736608875324 36.862460720272324  C -2.040410124752469 39.369925399873544  0.4339952644618081 40.18702709879724  0.4339952644618081 40.18702709879724  C 0.4339952644618081 40.18702709879724  1.9460757417438022 40.655765435053056  1.9460757417438022 40.655765435053056  C 0.8824850729555626 41.887009842727075  -0.17379982925182147 44.22185035008587  0.024063344323118106 48.6500148117519  C 0.40781642996057776 57.19385217206553  3.9344482596977404 57.78347820537336  3.9344482596977404 57.78347820537336  C 3.9344482596977404 57.78347820537336  28.47029395432728 68  28.47029395432728 68  C 28.47029395432728 68  65.50419215907463 56.508556105621146  65.50419215907463 56.508556105621146  C 65.50419215907463 56.508556105621146  67.97941170336387 55.69015127588162  61.08443799549048 53.18242676349978  C 60.80722661125739 50.53795508509785  60.76866659250086 45.977982883530146  62.69189664061695 44.44126723258953  C 62.727207605098485 44.413969796545764  62.752977727595244 44.372634692308885  62.78159178637552 44.33831791468267  C 64.35150920732177 43.695138312244325  65.43681648417113 42.79328154042686  64.58387401054453 41.578675604198715  C 64.58387401054453 41.578675604198715  62.97417964439212 40.95603692355654  62.97417964439212 40.95603692355654  C 64.0477141624111 40.12671477821983  65.66025192657668 37.95929868834032  65.91290797377718 32.32926728672623  C 66.08723050436443 28.45667092954214  65.29861401097989 26.188640793664884  64.3858052297912 24.853406125403207  C 64.3858052297912 24.853406125403207  67.56744681624237 23.867061055569792  67.56744681624237 23.867061055569792  Z M 31.910474072494083 30.834407647180917  L 32.17226399905354 20.433039622340576  L 38.39997948980059 18.793375769187286  L 59.446125161579296 13.252775934654212  C 59.446125161579296 13.252775934654212  62.581702224509634 12.42657314631129  62.581702224509634 12.42657314631129  C 61.57980435369055 14.775712638362123  61.621813330653964 17.99057131943133  61.78761251351674 20.05685729276644  C 61.82393816297119 20.524293396960083  61.86574136341272 20.951174234228343  61.90632868068142 21.275623776601208  C 61.90632868068142 21.275623776601208  58.47426775992465 22.368821606419957  58.47426775992465 22.368821606419957  L 31.910474072494083 30.834407647180917  Z M 6.215658621938645 36.37734696846782  C 6.380443122852496 34.31262085957863  6.4232625051423495 31.09698280413357  5.420552850057054 28.747843312082733  C 5.420552850057054 28.747843312082733  8.555720392065394 29.574044116969315  8.555720392065394 29.574044116969315  L 28.767595305714448 34.89678408222616  L 30.533347334671355 35.360059979719736  L 35.828572073906294 36.754310779840196  L 36.08975197686173 47.15593268709214  L 8.78788004775634 38.45429154031369  C 8.78788004775634 38.45429154031369  6.096332044099115 37.59741063274941  6.096332044099115 37.59741063274941  C 6.135904676394909 37.272441145891726  6.1777094795515275 36.84608294936924  6.215658621938645 36.37734696846782  Z M 6.639999324219895 22.24143213948318  C 6.546851434218043 22.232852945076626  4.311301711294717 21.969238458938424  4.202527699925946 15.598276528116015  C 4.164578557538828 13.325309941304859  4.480753862875655 11.68148262734344  5.119801149427277 10.84592108620603  C 5.526486051948728 10.312451164679729  6.006430928283246 10.201442567796578  6.335594062169765 10.201442567796578  C 6.509510712719866 10.201442567796578  6.634722737829442 10.232378536342226  6.643246074213953 10.232378536342226  C 6.643246074213953 10.232378536342226  22.798418346683025 16.979524780195117  22.798418346683025 16.979524780195117  L 30.858452756823077 20.34595002133382  L 30.594024555590337 30.820106926964584  L 7.982424389359359 22.698987748890225  C 7.982424389359359 22.698987748890225  6.789157062680791 22.270807127888716  6.789157062680791 22.270807127888716  C 6.745322759546749 22.254948616751857  6.685862991251779 22.24403189531993  6.639999324219895 22.24143213948318  Z M 28.791541054597655 52.98770688762214  L 28.528738550786834 63.462121642577195  C 28.528738550786834 63.462121642577195  4.724480694410506 54.912563994177034  4.724480694410506 54.912563994177034  C 4.680443457305872 54.896185531775984  4.62159188612453 54.88526725544213  4.575728219092646 54.88240752397327  C 4.480956833134136 54.874348280830915  2.2443925734134442 54.610995325226746  2.1362273760524113 48.24159338281628  C 2.0976694257055364 45.96576714782594  2.4154681483752634 44.323498768565294  3.053297806911409 43.48715729520492  C 3.4609974155737073 42.95368737367862  3.941145262166706 42.84267679333912  4.269699582045488 42.84267679333912  C 4.444022112632735 42.84267679333912  4.568828309869006 42.8725754142186  4.5779604564812635 42.8725754142186  C 4.5779604564812635 42.8725754142186  4.578975139375181 42.8725754142186  4.5779604564812635 42.8725754142186  C 4.5779604564812635 42.8725754142186  28.791541054597655 52.98770688762214  28.791541054597655 52.98770688762214  Z M 60.51641621970613 45.06754753907322  C 59.5135036427462 47.41642695041138  59.55510433257584 50.63258690280609  59.721106461505165 52.69731301169527  C 59.75864972990313 53.16630898033484  59.80045535860921 53.59240718911917  59.841042675877915 53.917376675976854  C 59.841042675877915 53.917376675976854  29.84458114065306 63.476942028354784  29.84458114065306 63.476942028354784  L 30.106773620859855 53.075316154190155  L 36.519772169207684 51.38625630432847  L 37.466878714684455 51.67976817362289  L 41.01664632192106 50.201807582100216  L 57.37962530270076 45.894271976433735  C 57.37962530270076 45.894271976433735  60.51641621970613 45.06754753907322  60.51641621970613 45.06754753907322  Z M 63.80297567291805 31.919544710431122  C 63.69136054967311 38.288426491416246  61.45479334458544 38.55308109024398  61.37341577607744 38.56114033338634  C 61.31882583642246 38.562700186936816  61.26423891471023 38.57205775357986  61.2128959609206 38.592855800273874  C 61.2128959609206 38.592855800273874  58.95055684918163 39.404240186295546  58.95055684918163 39.404240186295546  L 37.40924541865261 47.14215559934975  L 37.145832891237745 36.667998693718985  L 44.213303159417706 33.7149336878042  C 44.213303159417706 33.7149336878042  61.326335578738714 26.56534712761103  61.326335578738714 26.56534712761103  C 61.32856788114313 26.564047249692653  62.22656034905317 26.308491886846845  62.88569835270858 27.167191251977474  C 63.5237309815032 28.002752793114887  63.84031600432143 29.646578123619964  63.80297567291805 31.919544710431122  Z " fill-rule="nonzero" fill="rgba(77, 41, 0, 1)" stroke="none" transform="matrix(1 0 0 1 0 10 )" class="fill" />
    <path d="M 67.56744681624237 23.867061055569792  C 67.56764975283532 23.868620909120267  70.04286531493037 23.050215222514048  63.14890650673325 20.542490710132203  C 62.87392743246456 17.894379389345126  62.83516819319806 13.333367980620931  64.75515129778469 11.801851836511393  C 64.7894475803173 11.773774472118589  64.81501620221508 11.733217599445833  64.84505081693344 11.698380869586929  C 66.41476531600506 11.055201267148584  67.5010882666723 10.152566980445568  66.64834871492033 8.937961044217424  C 66.64834871492033 8.937961044217424  43.49287766932003 0  43.49287766932003 0  C 43.49287766932003 0  5.998922189931914 6.6779930385349395  5.998922189931914 6.6779930385349395  C 5.998922189931914 6.6779930385349395  1.7053930528234176 7.464158768912984  2.0889431923943227 16.00955611763856  C 2.2971561315250235 20.660519254869122  3.4358332161495415 22.94466794869895  4.431643043658947 24.068802366893454  C 4.431643043658947 24.068802366893454  1.3549214528580078 25.256630898726232  1.3549214528580078 25.256630898726232  C 0.5009642730905728 26.47123683495438  1.5870809150135479 27.374129528828778  3.1569983359597984 28.016269242297508  C 3.1868300136835797 28.052145872747843  3.2119941163400414 28.092442343171058  3.2468992098564073 28.120519707563865  C 5.165664589659854 29.653335759372677  5.128730365092933 34.21382948599195  4.852736608875324 36.862460720272324  C -2.040410124752469 39.369925399873544  0.4339952644618081 40.18702709879724  0.4339952644618081 40.18702709879724  C 0.4339952644618081 40.18702709879724  1.9460757417438022 40.655765435053056  1.9460757417438022 40.655765435053056  C 0.8824850729555626 41.887009842727075  -0.17379982925182147 44.22185035008587  0.024063344323118106 48.6500148117519  C 0.40781642996057776 57.19385217206553  3.9344482596977404 57.78347820537336  3.9344482596977404 57.78347820537336  C 3.9344482596977404 57.78347820537336  28.47029395432728 68  28.47029395432728 68  C 28.47029395432728 68  65.50419215907463 56.508556105621146  65.50419215907463 56.508556105621146  C 65.50419215907463 56.508556105621146  67.97941170336387 55.69015127588162  61.08443799549048 53.18242676349978  C 60.80722661125739 50.53795508509785  60.76866659250086 45.977982883530146  62.69189664061695 44.44126723258953  C 62.727207605098485 44.413969796545764  62.752977727595244 44.372634692308885  62.78159178637552 44.33831791468267  C 64.35150920732177 43.695138312244325  65.43681648417113 42.79328154042686  64.58387401054453 41.578675604198715  C 64.58387401054453 41.578675604198715  62.97417964439212 40.95603692355654  62.97417964439212 40.95603692355654  C 64.0477141624111 40.12671477821983  65.66025192657668 37.95929868834032  65.91290797377718 32.32926728672623  C 66.08723050436443 28.45667092954214  65.29861401097989 26.188640793664884  64.3858052297912 24.853406125403207  C 64.3858052297912 24.853406125403207  67.56744681624237 23.867061055569792  67.56744681624237 23.867061055569792  Z " stroke-width="0" stroke-dasharray="0" stroke="rgba(121, 121, 121, 1)" fill="none" transform="matrix(1 0 0 1 0 10 )" class="stroke" mask="url(#Clip179)" />
    <path d="M 31.910474072494083 30.834407647180917  L 32.17226399905354 20.433039622340576  L 38.39997948980059 18.793375769187286  L 59.446125161579296 13.252775934654212  C 59.446125161579296 13.252775934654212  62.581702224509634 12.42657314631129  62.581702224509634 12.42657314631129  C 61.57980435369055 14.775712638362123  61.621813330653964 17.99057131943133  61.78761251351674 20.05685729276644  C 61.82393816297119 20.524293396960083  61.86574136341272 20.951174234228343  61.90632868068142 21.275623776601208  C 61.90632868068142 21.275623776601208  58.47426775992465 22.368821606419957  58.47426775992465 22.368821606419957  L 31.910474072494083 30.834407647180917  Z " stroke-width="0" stroke-dasharray="0" stroke="rgba(121, 121, 121, 1)" fill="none" transform="matrix(1 0 0 1 0 10 )" class="stroke" mask="url(#Clip179)" />
    <path d="M 6.215658621938645 36.37734696846782  C 6.380443122852496 34.31262085957863  6.4232625051423495 31.09698280413357  5.420552850057054 28.747843312082733  C 5.420552850057054 28.747843312082733  8.555720392065394 29.574044116969315  8.555720392065394 29.574044116969315  L 28.767595305714448 34.89678408222616  L 30.533347334671355 35.360059979719736  L 35.828572073906294 36.754310779840196  L 36.08975197686173 47.15593268709214  L 8.78788004775634 38.45429154031369  C 8.78788004775634 38.45429154031369  6.096332044099115 37.59741063274941  6.096332044099115 37.59741063274941  C 6.135904676394909 37.272441145891726  6.1777094795515275 36.84608294936924  6.215658621938645 36.37734696846782  Z " stroke-width="0" stroke-dasharray="0" stroke="rgba(121, 121, 121, 1)" fill="none" transform="matrix(1 0 0 1 0 10 )" class="stroke" mask="url(#Clip179)" />
    <path d="M 6.639999324219895 22.24143213948318  C 6.546851434218043 22.232852945076626  4.311301711294717 21.969238458938424  4.202527699925946 15.598276528116015  C 4.164578557538828 13.325309941304859  4.480753862875655 11.68148262734344  5.119801149427277 10.84592108620603  C 5.526486051948728 10.312451164679729  6.006430928283246 10.201442567796578  6.335594062169765 10.201442567796578  C 6.509510712719866 10.201442567796578  6.634722737829442 10.232378536342226  6.643246074213953 10.232378536342226  C 6.643246074213953 10.232378536342226  22.798418346683025 16.979524780195117  22.798418346683025 16.979524780195117  L 30.858452756823077 20.34595002133382  L 30.594024555590337 30.820106926964584  L 7.982424389359359 22.698987748890225  C 7.982424389359359 22.698987748890225  6.789157062680791 22.270807127888716  6.789157062680791 22.270807127888716  C 6.745322759546749 22.254948616751857  6.685862991251779 22.24403189531993  6.639999324219895 22.24143213948318  Z " stroke-width="0" stroke-dasharray="0" stroke="rgba(121, 121, 121, 1)" fill="none" transform="matrix(1 0 0 1 0 10 )" class="stroke" mask="url(#Clip179)" />
    <path d="M 28.791541054597655 52.98770688762214  L 28.528738550786834 63.462121642577195  C 28.528738550786834 63.462121642577195  4.724480694410506 54.912563994177034  4.724480694410506 54.912563994177034  C 4.680443457305872 54.896185531775984  4.62159188612453 54.88526725544213  4.575728219092646 54.88240752397327  C 4.480956833134136 54.874348280830915  2.2443925734134442 54.610995325226746  2.1362273760524113 48.24159338281628  C 2.0976694257055364 45.96576714782594  2.4154681483752634 44.323498768565294  3.053297806911409 43.48715729520492  C 3.4609974155737073 42.95368737367862  3.941145262166706 42.84267679333912  4.269699582045488 42.84267679333912  C 4.444022112632735 42.84267679333912  4.568828309869006 42.8725754142186  4.5779604564812635 42.8725754142186  C 4.5779604564812635 42.8725754142186  4.578975139375181 42.8725754142186  4.5779604564812635 42.8725754142186  C 4.5779604564812635 42.8725754142186  28.791541054597655 52.98770688762214  28.791541054597655 52.98770688762214  Z " stroke-width="0" stroke-dasharray="0" stroke="rgba(121, 121, 121, 1)" fill="none" transform="matrix(1 0 0 1 0 10 )" class="stroke" mask="url(#Clip179)" />
    <path d="M 60.51641621970613 45.06754753907322  C 59.5135036427462 47.41642695041138  59.55510433257584 50.63258690280609  59.721106461505165 52.69731301169527  C 59.75864972990313 53.16630898033484  59.80045535860921 53.59240718911917  59.841042675877915 53.917376675976854  C 59.841042675877915 53.917376675976854  29.84458114065306 63.476942028354784  29.84458114065306 63.476942028354784  L 30.106773620859855 53.075316154190155  L 36.519772169207684 51.38625630432847  L 37.466878714684455 51.67976817362289  L 41.01664632192106 50.201807582100216  L 57.37962530270076 45.894271976433735  C 57.37962530270076 45.894271976433735  60.51641621970613 45.06754753907322  60.51641621970613 45.06754753907322  Z " stroke-width="0" stroke-dasharray="0" stroke="rgba(121, 121, 121, 1)" fill="none" transform="matrix(1 0 0 1 0 10 )" class="stroke" mask="url(#Clip179)" />
    <path d="M 63.80297567291805 31.919544710431122  C 63.69136054967311 38.288426491416246  61.45479334458544 38.55308109024398  61.37341577607744 38.56114033338634  C 61.31882583642246 38.562700186936816  61.26423891471023 38.57205775357986  61.2128959609206 38.592855800273874  C 61.2128959609206 38.592855800273874  58.95055684918163 39.404240186295546  58.95055684918163 39.404240186295546  L 37.40924541865261 47.14215559934975  L 37.145832891237745 36.667998693718985  L 44.213303159417706 33.7149336878042  C 44.213303159417706 33.7149336878042  61.326335578738714 26.56534712761103  61.326335578738714 26.56534712761103  C 61.32856788114313 26.564047249692653  62.22656034905317 26.308491886846845  62.88569835270858 27.167191251977474  C 63.5237309815032 28.002752793114887  63.84031600432143 29.646578123619964  63.80297567291805 31.919544710431122  Z " stroke-width="0" stroke-dasharray="0" stroke="rgba(121, 121, 121, 1)" fill="none" transform="matrix(1 0 0 1 0 10 )" class="stroke" mask="url(#Clip179)" />
  </g>
</svg>